<svg id="Layer_1" data-name="Layer 1" xmlns="http://www.w3.org/2000/svg" xmlns:xlink="http://www.w3.org/1999/xlink" viewBox="0 0 1920 1080"><defs><style>.cls-1,.cls-23,.cls-25,.cls-37,.cls-38,.cls-45,.cls-49,.cls-50,.cls-64,.cls-65,.cls-79,.cls-80,.cls-89,.cls-90,.cls-91,.cls-96{fill:none;}.cls-2{fill:#cd8a66;}.cls-3{fill:#dfe3e9;}.cls-4{fill:#ffd5c0;}.cls-5{fill:#cecece;}.cls-6{fill:#8897bb;}.cls-7{fill:#ff888d;}.cls-8{fill:#dddad6;}.cls-9{fill:#f9f1b5;}.cls-10{fill:#a6d8de;}.cls-11{fill:#fbd39e;}.cls-12{clip-path:url(#clip-path);}.cls-13{fill:#f9c384;}.cls-14{clip-path:url(#clip-path-2);}.cls-15{fill:#f9bba5;}.cls-16{clip-path:url(#clip-path-3);}.cls-17{clip-path:url(#clip-path-4);}.cls-18{fill:#9cd8d8;}.cls-19{clip-path:url(#clip-path-5);}.cls-20{fill:#51afaa;}.cls-21{fill:#8c8c8c;}.cls-22{fill:#2c2b33;}.cls-23,.cls-37{stroke:#f9bba5;}.cls-23,.cls-25,.cls-37,.cls-38,.cls-49,.cls-50,.cls-64,.cls-65,.cls-80,.cls-89,.cls-90,.cls-96{stroke-linecap:round;}.cls-23,.cls-45,.cls-79,.cls-91{stroke-miterlimit:10;}.cls-23{stroke-width:1.91px;}.cls-24{fill:#fff;}.cls-25,.cls-38,.cls-65,.cls-90{stroke:#2c2b33;}.cls-25,.cls-37,.cls-38,.cls-49,.cls-50,.cls-64,.cls-65,.cls-80,.cls-89,.cls-90,.cls-96{stroke-linejoin:round;}.cls-25{stroke-width:1.5px;}.cls-26{fill:#5eb8b6;}.cls-27{fill:#1d5b8a;}.cls-28{fill:#ededed;}.cls-29{fill:#fdc5c6;}.cls-30{clip-path:url(#clip-path-6);}.cls-31{clip-path:url(#clip-path-7);}.cls-32{fill:#f2aaae;}.cls-33{fill:#e8c4d8;}.cls-34{fill:#dbdbdb;}.cls-35{clip-path:url(#clip-path-8);}.cls-36{clip-path:url(#clip-path-9);}.cls-37{stroke-width:1.5px;}.cls-38{stroke-width:1.26px;}.cls-39{fill:#8594c1;}.cls-40{fill:#381110;}.cls-41{fill:#345872;}.cls-42{clip-path:url(#clip-path-10);}.cls-43{fill:#29354b;}.cls-44{fill:#c1cbd4;}.cls-45,.cls-91{stroke:#f1f0ec;}.cls-45{stroke-width:0.94px;}.cls-46{clip-path:url(#clip-path-11);}.cls-47{fill:#a44a2a;}.cls-48{fill:#1b293b;}.cls-49,.cls-64{stroke:#a44a2a;}.cls-49{stroke-width:1.88px;}.cls-50,.cls-96{stroke:#000;}.cls-50{stroke-width:1.25px;}.cls-51{fill:url(#linear-gradient);}.cls-52{fill:#e5f1fe;}.cls-53{clip-path:url(#clip-path-12);}.cls-54{fill:#f1f0ec;}.cls-55{clip-path:url(#clip-path-13);}.cls-56{fill:#5086b9;}.cls-57{clip-path:url(#clip-path-14);}.cls-58{clip-path:url(#clip-path-15);}.cls-59{fill:#c3e8ea;}.cls-60{clip-path:url(#clip-path-16);}.cls-61{fill:#acdde0;}.cls-62{clip-path:url(#clip-path-17);}.cls-63{fill:url(#linear-gradient-2);}.cls-64,.cls-65,.cls-80{stroke-width:1.84px;}.cls-66{fill:#78aad1;}.cls-67{clip-path:url(#clip-path-18);}.cls-68{fill:#d58757;}.cls-69{fill:#fdae73;}.cls-70{fill:#e7eaf4;}.cls-71{clip-path:url(#clip-path-19);}.cls-72{fill:#fbc7aa;}.cls-73{fill:#f79b73;}.cls-74{clip-path:url(#clip-path-20);}.cls-75{fill:url(#linear-gradient-3);}.cls-76{fill:#233c5d;}.cls-77{fill:#ffc604;}.cls-78{fill:#592e16;}.cls-79{stroke:#979fad;stroke-width:0.92px;}.cls-80,.cls-89{stroke:#f79b73;}.cls-81{fill:#fad1b6;}.cls-82{fill:#81a1c8;}.cls-83{clip-path:url(#clip-path-21);}.cls-84{clip-path:url(#clip-path-22);}.cls-85{clip-path:url(#clip-path-23);}.cls-86{clip-path:url(#clip-path-24);}.cls-87{fill:#efb89a;}.cls-88{fill:#efaa65;}.cls-89,.cls-90{stroke-width:2.02px;}.cls-91{stroke-width:1.22px;}.cls-92{fill:#efa08d;}.cls-93{fill:#fcb97c;}.cls-94{clip-path:url(#clip-path-25);}.cls-95{fill:#e06855;}.cls-96{stroke-width:1.7px;}.cls-97{fill:#dd904a;}.cls-98{fill:#ae9c96;}</style><clipPath id="clip-path"><path class="cls-1" d="M661.71,255c0-1.72-2.19-8.41-10.29-17.63-10.16-11.55-23.92-22-43.37-5.47,0,0-50.53,62.78-27.08,96.21l1,1.42-6.89,25.84s84.65-6.08,91.91-23.49C673.23,317,661.66,265.34,661.71,255Z"/></clipPath><clipPath id="clip-path-2"><path class="cls-1" d="M661.12,316.86s15.79,6.15,19.37,10.31c12.74,14.77,23.25,65.49,25.57,73.69,7.08,24.05-.68,40.59-.68,40.59l-14.25-26.57.85-10.21L670.79,361.2S647.26,327.57,661.12,316.86Z"/></clipPath><clipPath id="clip-path-3"><path class="cls-4" d="M673.16,821.48s-26.34-93.22-28.49-144.58S630,584.78,630,584.78s-12.43-61.4-.72-79.53,51-4.81,51-4.81,12,87.7,9.35,144.54,6.68,173.43,6.68,173.43Z"/></clipPath><clipPath id="clip-path-4"><path class="cls-4" d="M624.07,297.34a115.93,115.93,0,0,1-10.52-6.65c.15,17.76-9.31,27.29-9.31,27.29l31.6,15.67L643,315.48c-1.73-2.41-5.46-10.64-6.71-16.47C634.3,302.6,633,302.15,624.07,297.34Z"/></clipPath><clipPath id="clip-path-5"><path class="cls-1" d="M675.3,417.4s-.45-7.36-1.51-17.82c-1.56-15.4,12.27-14.78-4.59-51.65-1.29-3.59-7.22-28.27-9.33-31-4.44-5.7-13.34-1.77-13.34-1.77s2.69,46.29-5.85,47.56c-12.69,1.9-23.88-17.5-36.41-45.42-7.51-1.42-13.76.91-15.24,4.61,21.35,44.47,3.73,60.75,3.74,60.76,10.64,66.83-16.61,120-16.61,120a201.62,201.62,0,0,1,23.47,14.86s60.6,64.63,88.86,27.28c0,0-9.76-58-10.29-65.82C677.15,463.64,675.3,417.4,675.3,417.4Z"/></clipPath><clipPath id="clip-path-6"><path class="cls-4" d="M1274.38,839.55s24.38-86.68,26.37-134.43a377.13,377.13,0,0,1,13.67-85.66s11.55-57.09.67-73.94-47.39-4.47-47.39-4.47-11.17,81.54-8.69,134.39-4.88,164.27-4.88,164.27Z"/></clipPath><clipPath id="clip-path-7"><path class="cls-1" d="M1263.62,548.74s-9.11,102.51-9.49,104c0,0,30.37,5.75,50.37,0l-2.25-100.45Z"/></clipPath><clipPath id="clip-path-8"><path class="cls-7" d="M1290.51,364.49s-1.42,4.66-6.61,12c-9,12.82-16.92,38.74-17,65-.06,40.28,4.62,102.57-.63,112.68,0,0-15.89,8.42-20.66,4.9s9.63-48,12.28-66.53a341,341,0,0,0,3-36.69s-17.09-18-9.75-38.42c4.45-12.42,4.82-23,12.43-33.15C1272.5,380.33,1282,373.15,1290.51,364.49Z"/></clipPath><clipPath id="clip-path-9"><path class="cls-4" d="M1303.6,352.8a108,108,0,0,0,9.27-6.93c1.16,16.47,10.62,24.61,10.62,24.61l-28.13,16.84L1287.43,371c1.43-2.37,4.27-10.27,5-15.76C1294.51,358.43,1295.72,357.91,1303.6,352.8Z"/></clipPath><clipPath id="clip-path-10"><path class="cls-1" d="M1473.86,603.18s-83.82,70.88-89.79,74.26c-9.26,17-1.65,25.81.41,29.75,7.42,14.16,70,32.37,98.92,46.17l23.89-17.86-64.67-50.72,86-39.95V615.32Z"/></clipPath><clipPath id="clip-path-11"><path class="cls-2" d="M1528,358.88l5.74,34.48s-14.92,12.67-30.4,6.83c0,0,2-17.57-1.59-27.52C1499.48,366.37,1528,358.88,1528,358.88Z"/></clipPath><linearGradient id="linear-gradient" x1="840.28" y1="372.88" x2="899.11" y2="372.88" gradientTransform="matrix(-0.98, -0.22, -0.22, 0.98, 2450.22, 383.94)" gradientUnits="userSpaceOnUse"><stop offset="0" stop-color="#ffc2a9"/><stop offset="0.02" stop-color="#ffc2a9"/><stop offset="0.3" stop-color="#ffbfa7"/><stop offset="0.55" stop-color="#ffb4a3"/><stop offset="0.78" stop-color="#ffa29b"/><stop offset="0.91" stop-color="#ff9595"/><stop offset="1" stop-color="#ff9595"/></linearGradient><clipPath id="clip-path-12"><path class="cls-3" d="M1587.79,412.16c15.69,4.61,23.28,45.57,33.51,88.7,1.17,4.93,10.39,48,10.39,48s.3,7.8-5.7,11.71c-5.13,3.33-7.51,7.53-37.22,7.92-28.53.38-58.34-1.07-58.34-1.07s-8.11-19-.94-20.68c25.17-5.75,60.22-18.33,64.42-19.11-4.63-9.9-36.09-50.22-36.33-71.55,0,0,11.92-39.87,23.71-43.73A10.56,10.56,0,0,1,1587.79,412.16Z"/></clipPath><clipPath id="clip-path-13"><path class="cls-1" d="M1475.72,582.94h108.37s-.16,24.72,1,37.09c-3.38,2.59-28.85-1-35.83-.27-9,1-40.26-.93-51.14-1.75-22.11-1.64-30-17.47-30-17.47Z"/></clipPath><clipPath id="clip-path-14"><path class="cls-1" d="M394.28,507.06s-.74,51.75-1.29,54.29c-1.8,8.32-10.67,28-20.31,32.5-5.95-3.69-3.5-30.63-3.5-30.63l-4.66-41Z"/></clipPath><clipPath id="clip-path-15"><path class="cls-1" d="M265.06,617.25s3.3,25,3.07,27.29h92.58v-26Z"/></clipPath><clipPath id="clip-path-16"><path class="cls-1" d="M311.14,425.74c-4.95.94-10.77-2.38-12.79-2.39,0,0-55.44,24.78-60.63,43.63-2.54,9.24,27.34,150.27,27.34,150.27l99.55,2.33c-1.11-18.38-3.07-39,1.43-65.91,4.94-29.53,16.95-41.1,8.68-64.58-8-22.82-14.55-48.64-14.55-48.64-3-1.17-9.71-4.59-30.92-11.68-.17,0-13.17-4-18.11-3"/></clipPath><clipPath id="clip-path-17"><path class="cls-1" d="M297.5,382.07s-.16-.36-.42-1a7.81,7.81,0,0,0,.42,1"/></clipPath><linearGradient id="linear-gradient-2" x1="0.7" y1="1076.79" x2="1.51" y2="1076.79" gradientTransform="matrix(-61.96, -0.02, -0.02, 61.96, 454.55, -66337.33)" gradientUnits="userSpaceOnUse"><stop offset="0" stop-color="#6966c9"/><stop offset="1" stop-color="#0e4285"/></linearGradient><clipPath id="clip-path-18"><path class="cls-5" d="M360.28,607.46l-54.57-5.31c-1.81-.18-2.73-3-2-6.21l13-62.71c.67-3.26,2.69-5.75,4.5-5.58L375.74,533c1.81.18,2.73,3,2.05,6.21l-13,62.71C364.1,605.14,362.09,607.63,360.28,607.46Z"/></clipPath><clipPath id="clip-path-19"><path class="cls-6" d="M440,610s31.41,7.68,47,46c-1-22.08-5.54-29.32-5.54-29.32-3.51-3.34-27.77-28.08-60.19-31.25Z"/></clipPath><clipPath id="clip-path-20"><path class="cls-1" d="M398.32,558.44l-.42-1a9.45,9.45,0,0,0,.42,1"/></clipPath><linearGradient id="linear-gradient-3" x1="4.11" y1="1077.61" x2="4.92" y2="1077.61" gradientTransform="matrix(-61.96, -0.02, -0.02, 61.96, 766.72, -66211.84)" xlink:href="#linear-gradient-2"/><clipPath id="clip-path-21"><path class="cls-1" d="M1016.85,834.92S996.11,779.58,940.43,780c-37.79-12.76-195.78,45.24-195.78,45.24s-25,47.25-4.41,61.38c.34,8.37,7.89,11.89,26,18.85a19.22,19.22,0,0,0,11.39.39c16.47,5,49.72,5.17,71.36,6.56a26.72,26.72,0,0,0,9.42-1.1l-2.58,1.62,159.38-66.6C1018.92,841.07,1016.85,834.92,1016.85,834.92Z"/></clipPath><clipPath id="clip-path-22"><path class="cls-1" d="M805.45,882.26s-26,15.08-13.06,29.85c-4.32,21.53-11.15,49.55-11.15,49.55l-81.93,7L697,994.05s72.91,5.79,97.1,7.1,36-46.83,49.85-69.28c10-16.08,36.41-46.24,36.41-46.24Z"/></clipPath><clipPath id="clip-path-23"><path class="cls-1" d="M738.38,825.7s-14,.73-39,11.95c-24.72,11.1-44.61,25.29-55.73,38.72-6,7.24-29.62,44.24-29.62,44.24l28,3.57,27-30.51,58.12-16.83S755.26,837.88,738.38,825.7Z"/></clipPath><clipPath id="clip-path-24"><path class="cls-1" d="M756.89,888.48l20.8.7s1.13,5.31-7.57,13.1a6,6,0,0,1-7.67.26l-6.21-4.78Z"/></clipPath><clipPath id="clip-path-25"><polygon class="cls-1" points="1152.85 622.27 1158.41 642.54 1143.22 657.14 1123.58 644.86 1126.44 624.33 1152.85 622.27"/></clipPath></defs><title>Illustration</title><polygon class="cls-8" points="1369.81 843.39 532.49 843.39 113.83 905.87 532.49 968.35 1369.81 968.35 1788.47 905.87 1369.81 843.39"/><polygon class="cls-9" points="907.62 799.55 994.69 849.82 994.69 749.28 907.62 799.55"/><polygon class="cls-10" points="820.54 849.82 907.62 900.09 994.69 849.82 907.62 799.55 820.54 849.82"/><path class="cls-4" d="M589.86,374.88s1.9.61,2.91,7.82c0,0,18.79-.34,15.58-12.87a55.86,55.86,0,0,0-11-21.26Z"/><path class="cls-11" d="M661.71,255c0-1.72-2.19-8.41-10.29-17.63-10.16-11.55-23.92-22-43.37-5.47,0,0-50.53,62.78-27.08,96.21l1,1.42-6.89,25.84s84.65-6.08,91.91-23.49C673.23,317,661.66,265.34,661.71,255Z"/><g class="cls-12"><path class="cls-13" d="M597.11,369.71S577.8,279.5,630,258.42c0,0,22.33,9.31,34.71,68.49S597.11,369.71,597.11,369.71Z"/></g><path class="cls-4" d="M661.12,316.86s15.79,6.15,19.37,10.31c12.74,14.77,23.25,65.49,25.57,73.69,7.08,24.05-.68,40.59-.68,40.59l-14.25-26.57.85-10.21L670.79,361.2S647.26,327.57,661.12,316.86Z"/><g class="cls-14"><path class="cls-15" d="M661.5,366.83l7.7-18.9s24.06,46.87,30.43,65.74-24.33,3.73-24.33,3.73Z"/></g><path class="cls-4" d="M597.66,323l6.58-5,38.72-2.5s9.75-1.44,18.16,1.38c0,0,17,58.72-7.83,57.18S601.35,360.1,597.66,323Z"/><path class="cls-4" d="M589,321.94c4.11,1.46,12.39,20.61,9.26,31.6-8.1,28.4-38.82,73.83-38.82,73.83s-4.43,18.75-11.8,19.92a13.84,13.84,0,0,1-15.82-16c5.1-29.28,25.92-76.41,41.44-98.73C576.37,328.1,584,322,589,321.94Z"/><path class="cls-4" d="M620.73,864.78s-12-24.34-11.31-37.36-17.92-8.1-17.92-8.1-7.57,4.79-.32,27.2S620.73,864.78,620.73,864.78Z"/><path class="cls-4" d="M694.85,811.22S698.7,838,710.1,847l-30.93-2.74s-9.62-33.62-8.66-38.44S694.85,811.22,694.85,811.22Z"/><path class="cls-4" d="M673.16,821.48s-26.34-93.22-28.49-144.58S630,584.78,630,584.78s-12.43-61.4-.72-79.53,51-4.81,51-4.81,12,87.7,9.35,144.54,6.68,173.43,6.68,173.43Z"/><path class="cls-4" d="M673.16,821.48s-26.34-93.22-28.49-144.58S630,584.78,630,584.78s-12.43-61.4-.72-79.53,51-4.81,51-4.81,12,87.7,9.35,144.54,6.68,173.43,6.68,173.43Z"/><g class="cls-16"><path class="cls-15" d="M661.71,516.33s7.59,137.34,6.44,178,11,149.92,11,149.92-78.81,22.93-78-70.16-4.37-279.92,28.08-268.84Z"/></g><path class="cls-4" d="M588.05,829s-4.16-117.52-1.42-168.85-5.89-93.1-5.89-93.1-16.78-56.73,3.78-83.73c13.07-17.17,72.63,14.28,72.63,14.28s-11,74.81-19.08,131.14-28.53,202.48-28.53,202.48Z"/><path class="cls-4" d="M674.86,830s20.88,13.94,26.29,15.42,4.25-3.59,4.25-3.59c3.63,5.26,18,8.41,24.47,12.59,5.94,3.85,7.6,8.14,7.6,8.14C721.15,875.69,676,856,676,856l-2.67.66S670.44,837.71,674.86,830Z"/><path class="cls-4" d="M630.52,870.63c-8.26,20.53-41.23-12.62-42.09-11.14s-4-3.94-4-3.94,2.25-22.28,4.17-19.65,5.72,8.14,5.72,8.14,10.41,16.23,18.88,10.2c2-3.42-1.24-11.87-1.24-11.87"/><path class="cls-4" d="M624.07,297.34a115.93,115.93,0,0,1-10.52-6.65c.15,17.76-9.31,27.29-9.31,27.29s14.29,30,40.25,24.17c4.31-1-1.53-26.67-1.53-26.67-1.73-2.41-5.46-10.64-6.71-16.47C634.3,302.6,633,302.15,624.07,297.34Z"/><path class="cls-4" d="M624.07,297.34a115.93,115.93,0,0,1-10.52-6.65c.15,17.76-9.31,27.29-9.31,27.29l31.6,15.67L643,315.48c-1.73-2.41-5.46-10.64-6.71-16.47C634.3,302.6,633,302.15,624.07,297.34Z"/><g class="cls-17"><path class="cls-15" d="M610.19,287.9s12.21,28.65,23.71,25.68,12.39-26.18,12.39-26.18Z"/></g><path class="cls-4" d="M628.46,238.9c13.88.32,24.85,13.29,24.48,29a32,32,0,0,1-.59,5.43c0,.06,0,.11,0,.17a46,46,0,0,1-11.14,23.66,94.75,94.75,0,0,0-6.84,8.7c-2.54,3.2-3.79,2.53-11.72-3.73a117.11,117.11,0,0,1-9.35-8c-4.63-4.56-8-9.41-8.34-14.86,0-.08-.07-.16-.1-.23a31.44,31.44,0,0,1-2.17-12.29C603,251,614.57,238.57,628.46,238.9Z"/><path class="cls-11" d="M639.74,248.23c-41.34,30.64-44.38,21.84-44.38,21.84l14.55-32.95,30.94-.85Z"/><path class="cls-18" d="M675.3,417.4s-.45-7.36-1.51-17.82c-1.56-15.4,12.27-14.78-4.59-51.65-1.29-3.59-7.22-28.27-9.33-31-4.44-5.7-13.34-1.77-13.34-1.77s2.69,46.29-5.85,47.56c-12.69,1.9-23.88-17.5-36.41-45.42-7.51-1.42-13.76.91-15.24,4.61,21.35,44.47,3.73,60.75,3.74,60.76,10.64,66.83-16.61,120-16.61,120a201.62,201.62,0,0,1,23.47,14.86s60.6,64.63,88.86,27.28c0,0-9.76-58-10.29-65.82C677.15,463.64,675.3,417.4,675.3,417.4Z"/><g class="cls-19"><path class="cls-20" d="M587.81,363.5s28.26,45.75,11.48,101-25,25.75-25,25.75Z"/></g><path class="cls-4" d="M632.58,439.64s2.57,7.48,0,12.19c0,0-85.35,6.46-96-3.95-7.51-7.35-2.94-20.53-2.94-20.53s.4-15,20.48-9C560.62,420.35,632.58,439.64,632.58,439.64Z"/><path class="cls-11" d="M643.67,240.25l-3.28,1-.65,7s12.65,17.34,15.72,18.69C655.46,266.92,665.3,248,643.67,240.25Z"/><path class="cls-21" d="M639.23,418.16l-1.65,39.25c-.15,3.64,4.63,6.19,9.6,5.1L695.63,452c3.25-.71,5.61-2.81,5.82-5.21L705,407.1c.32-3.72-4.52-6.39-9.6-5.29l-50.29,11C641.71,413.51,639.33,415.71,639.23,418.16Z"/><path class="cls-5" d="M642.57,417.9l-1.64,39.24c-.16,3.65,4.63,6.19,9.6,5.11L699,451.69c3.26-.71,5.62-2.82,5.83-5.21l3.49-39.65c.33-3.72-4.52-6.39-9.59-5.28l-50.29,11C645.06,413.24,642.68,415.44,642.57,417.9Z"/><path class="cls-15" d="M636.14,439.6l-.2-2.58s.72-6.67,2.8-7.16l-.24,5.57Z"/><path class="cls-4" d="M632.58,439.64s5.1-4.19,5.92-4.21,7.86-3.35,8.23-3.31,1.82-.09,2.12.58-.35,2.48-.35,2.48,2.35,9.61,2.49,11.35.53,6.73-2.81,6.75-15.58-1.45-15.58-1.45Z"/><path class="cls-4" d="M706,432.53s-5.29-2.63-8.31-2.67-4.15.23-4.3,1.62a1.29,1.29,0,0,0,1.5,1.53,4.54,4.54,0,0,0-1.33,2c-.32,1.17-1.52,10.71,1.4,12.37a7.65,7.65,0,0,0,6.09.39s4-4.17,4.33-6.11C706.8,433.12,706,432.53,706,432.53Z"/><path class="cls-22" d="M629.36,272l-1.11-.21a.76.76,0,0,1-.61-.88l.52-2.84a.77.77,0,0,1,.88-.61l1.11.21a.76.76,0,0,1,.61.88l-.52,2.84a.77.77,0,0,1-.88.61"/><path class="cls-22" d="M646.25,273.92l-1.11-.2a.76.76,0,0,1-.61-.88l.52-2.84a.76.76,0,0,1,.88-.61l1.11.2a.77.77,0,0,1,.61.88l-.52,2.85a.75.75,0,0,1-.88.6"/><polyline class="cls-23" points="638.78 275.14 641.56 283.58 637.77 285.54"/><path class="cls-24" d="M627.32,290.3l9.75,1.94a.71.71,0,0,1,.22,1.31,15.13,15.13,0,0,1-3.25,2.39c-1.55.44-4.46-.86-4.74-1.06a9.56,9.56,0,0,1-2.66-3.41.72.72,0,0,1,.68-1.17"/><path class="cls-25" d="M622.41,259.58A10.59,10.59,0,0,1,631,260"/><path class="cls-25" d="M644.44,262.32a8.66,8.66,0,0,1,6.44,1.53"/><path class="cls-4" d="M607.56,280.82s.38,1.06-2.33-.1c-6.28-2.67-10-20.42,1.53-12.94Z"/><path class="cls-26" d="M587.81,470.24S575.38,486,571.25,535.3c-4.48,53.51-.5,71.65-3.25,76.08,0,0,16.5,7,27.25,3.91,0,0,36.5,13.73,60,3.74,0,0,30.72-3.73,41-14.68,0,0-7.76-115-18.36-130.36C672.5,480.67,587.81,470.24,587.81,470.24Z"/><path class="cls-20" d="M587.81,470.24l2.37-9.81s66.17,10.41,87.25,4.91c0,0,2.5,4.9.46,8.65C673.79,478.15,654,485.15,587.81,470.24Z"/><path class="cls-27" d="M607.45,872.64s5.88-13,17.63-10.47c0,0,4.87-4.84-4.35-6.59,0,0-17.34,2.57-19.83,12.87Z"/><path class="cls-27" d="M584.79,851.89s-.3,5.94,0,7,21.63,19.91,31.79,20.66,16.19-4.36,13.94-9l-11.85,2Z"/><path class="cls-27" d="M672.51,848l40.11,12.62s2.59-10.53,5.48-11.26c0,0,4.61-.42,5.07,1.86,0,0-4.92,8.4-3.67,9.4,0,0,16.09-.35,16.61,0l.53.36s.36,6.9-13.52,7.52-52-11.86-52-11.86S670.55,851.11,672.51,848Z"/><path class="cls-28" d="M1323.1,289.07c-16.59-17-30.22-8.48-40.62,1.34-8.29,7.84-9.49,9.62-16.46,17.85a7.58,7.58,0,0,0-2,4.19c-.85,9.57-8.56,49.76-4.08,64.12,5.23,16.74,83.08,29.64,83.08,29.64Z"/><path class="cls-28" d="M1265.27,389.52a.81.81,0,0,0,.15-1.61,7.55,7.55,0,0,1-5.56-3.6c-8-12-.42-49.66,5.31-70a.8.8,0,0,0-.55-1,.81.81,0,0,0-1,.56,276.73,276.73,0,0,0-7.65,36.87c-2.2,17.06-1.34,28.67,2.54,34.49a9.2,9.2,0,0,0,6.72,4.31Z"/><path class="cls-4" d="M1227.67,493.67s23.33,7.46,29.9,11.34c0,0,40.4-140.64,2.46-114.94-17.29,28.72-19.79,55.72-23.59,76.6Z"/><path class="cls-4" d="M1326,881.48l2.92-10.75c.16-3.36,3.28-10.87,2.58-16.1l15.6-3a163.15,163.15,0,0,0,4.08,16.88c1,3.65,3,8.88,3,8.88C1345,905.91,1326,881.48,1326,881.48Z"/><path class="cls-29" d="M1231.86,466.35s34.39,2.07,40.64,6.32L1260,390.07S1232.73,449.42,1231.86,466.35Z"/><path class="cls-4" d="M1274.38,839.55s24.38-86.68,26.37-134.43a377.13,377.13,0,0,1,13.67-85.66s11.55-57.09.67-73.94-47.39-4.47-47.39-4.47-11.17,81.54-8.69,134.39-4.88,164.27-4.88,164.27Z"/><g class="cls-30"><path class="cls-4" d="M1274.38,508.88s10.06,183.55,10.54,194.34S1271.52,854,1271.52,854l58.08,1,83.82-267.64S1308.23,494,1274.38,508.88Z"/></g><path class="cls-4" d="M1347.06,851.6s10.21-114.36,7.66-162.09a377.5,377.5,0,0,1,5.47-86.57s15.61-52.75-3.51-77.85c-12.15-16-67.53,13.28-67.53,13.28s10.26,69.56,17.75,121.93,24.56,194.33,24.56,194.33Z"/><path class="cls-29" d="M1290.48,559.82s13.52,93.68,12.77,98.43c0,0,47-3.92,56.25-3.84,0,0,.75-34,5.5-51.23s6.89-43.18,1.19-49.18S1290.48,559.82,1290.48,559.82Z"/><path class="cls-29" d="M1263.62,548.74s-9.11,102.51-9.49,104c0,0,30.37,5.75,50.37,0l-2.25-100.45Z"/><g class="cls-31"><path class="cls-32" d="M1279.31,559.92s-13.6,98.66-5.56,105.08,51.76,20.67,46-22S1326.63,553.16,1279.31,559.92Z"/></g><path class="cls-28" d="M1323.16,289.11c32.68,21.14,7.55,83.24,49.08,108.89,11.5,7.1,46,41.49,19,81.82-17.63,26.37-64.21,17.2-78-8.19S1323.16,289.11,1323.16,289.11Z"/><path class="cls-33" d="M1325.24,378.19s2.64-3.34-2.61-4.37-4.71-5.59-4.71-5.59,9.09-.68,10.73,1.4S1327.53,378.13,1325.24,378.19Z"/><path class="cls-34" d="M1292,373.15s-25.81-30.36-10-59.89c19.86-37,43.11,8.49,51.67,59.89C1347.51,411.22,1292,373.15,1292,373.15Z"/><path class="cls-7" d="M1266.77,525.18c.08,7.25-5.48,25.05-2,29,28.94,32.54,77.66,1,77.66,1,11.7-10,11.8-17.87,11.8-17.87s-37.61-46.84-32-83.55,17.89-75.94,17.89-75.94-14.37-10.24-16.73-7.89S1295,406.21,1295,406.21c-13.5-23.71-4.49-41.72-4.49-41.72s-15.69,12.74-21,37.11-4.59,66.25-4.59,66.25S1266.61,510.84,1266.77,525.18Z"/><path class="cls-7" d="M1322.32,369.31,1295,406.21c.33,6.44-4.66,70-3,75.45,1.15,3.92-1,34.38,0,38.66,4.09,18.45,25.15,43.11,33.52,43.08,18.69-.07,54-1.1,50.33-13.21s-26.81-66-24.26-83.08L1354.1,450s22-60.5-2.85-68.35C1330.65,375.11,1322.32,369.31,1322.32,369.31Z"/><path class="cls-7" d="M1290.51,364.49s-1.42,4.66-6.61,12c-9,12.82-16.92,38.74-17,65-.06,40.28,4.62,102.57-.63,112.68,0,0-15.89,8.42-20.66,4.9s9.63-48,12.28-66.53a341,341,0,0,0,3-36.69s-17.09-18-9.75-38.42c4.45-12.42,4.82-23,12.43-33.15C1272.5,380.33,1282,373.15,1290.51,364.49Z"/><g class="cls-35"><path class="cls-7" d="M1270,452.23s-7.44,1.62-9,49.15-3,61.76,15.69,62.36S1270,452.23,1270,452.23Z"/></g><path class="cls-4" d="M1324.6,482.61s22.35,1.6,28.92,5.48c0,0,40.65-88.76,2.58-100.33C1342.21,383.53,1324.6,482.61,1324.6,482.61Z"/><path class="cls-4" d="M1303.6,352.8a108,108,0,0,0,9.27-6.93c1.16,16.47,10.62,24.61,10.62,24.61L1295,406.21c-3.73-1.74-7.57-35.2-7.57-35.2,1.43-2.37,4.27-10.27,5-15.76C1294.51,358.43,1295.72,357.91,1303.6,352.8Z"/><path class="cls-4" d="M1303.6,352.8a108,108,0,0,0,9.27-6.93c1.16,16.47,10.62,24.61,10.62,24.61l-28.13,16.84L1287.43,371c1.43-2.37,4.27-10.27,5-15.76C1294.51,358.43,1295.72,357.91,1303.6,352.8Z"/><g class="cls-36"><path class="cls-15" d="M1315.78,343s-10.2,22.24-21.08,20.32-12.42-18.14-12.42-18.14Z"/></g><path class="cls-4" d="M1303.61,293.79c-12.88-.9-24.15,10.17-25.16,24.72a29.58,29.58,0,0,0,.09,5.08.77.77,0,0,0,0,.15,42.7,42.7,0,0,0,8.29,22.87,89.17,89.17,0,0,1,5.58,8.64c2.08,3.18,3.29,2.66,11.17-2.45a107.49,107.49,0,0,0,9.35-6.61c4.67-3.82,8.2-8,9-13.05a2,2,0,0,0,.11-.2,29,29,0,0,0,3.06-11.19C1326.12,307.2,1316.49,294.68,1303.61,293.79Z"/><path class="cls-4" d="M1319.36,334.39s-.44.95,2.17.11c6-1.93,11-18.05-.31-12.11Z"/><path class="cls-4" d="M1268.5,535.43s10.27,8.45,11.19,13.31c0,0,70-47.35,73.83-60.65,2.7-9.4,9-25.89,9-25.89s-23-1.4-36.5,12.71C1321.7,479.46,1268.5,535.43,1268.5,535.43Z"/><path class="cls-28" d="M1279.65,307.11c41.88,27.39,47.95,11.57,47.95,11.57l-8.83-25.63-27.59-.52Z"/><path class="cls-4" d="M1326,881.48s2.27-13.25,3.79-15.58c3.54,2.33,10.33,1.7,20.66-1,0,0,3,8.44,3.71,11.65.54,3.63-2,10.18-2.5,10.91-1.09,1.63-7.22,2.64-11.74,2.56s-9.09-.21-10.4-2.17S1326,881.48,1326,881.48Z"/><polygon class="cls-4" points="1254.13 839.71 1251.74 856.2 1271.07 856.2 1274.38 839.55 1254.13 839.71"/><path class="cls-4" d="M1220.43,873.74a13.11,13.11,0,0,1,5.49-5.49c3.46-1.56,19.38-8.29,20.61-9s5.54-5.31,5.54-5.31h19.45L1270,876.78h-46.4S1220.36,876.42,1220.43,873.74Z"/><path class="cls-22" d="M1298.8,327.38l1-.1a.64.64,0,0,0,.57-.7l-.25-2.42a.64.64,0,0,0-.7-.57l-.95.1a.64.64,0,0,0-.57.7l.25,2.42a.64.64,0,0,0,.7.57"/><path class="cls-22" d="M1284.47,327.89l.94-.1a.63.63,0,0,0,.57-.7l-.25-2.42a.64.64,0,0,0-.7-.57l-1,.1a.64.64,0,0,0-.57.7l.26,2.42a.63.63,0,0,0,.7.57"/><polyline class="cls-37" points="1291.95 329.62 1288.26 336.15 1291.07 338.39"/><path class="cls-24" d="M1298.93,344.06h-8.39a.61.61,0,0,0-.4,1.06,12.67,12.67,0,0,0,2.3,2.51c1.21.62,3.83,0,4.09-.1a8.11,8.11,0,0,0,2.77-2.38.6.6,0,0,0-.37-1.08"/><path class="cls-38" d="M1305.46,317.39a8.93,8.93,0,0,0-7.25-.2"/><path class="cls-38" d="M1286.75,318.25s-3.83-.94-6.65,1.26"/><path class="cls-29" d="M1295,406.21l20.17-18.89,12.16,4s9.69-21.28-5-22c0,0-16.57,13.95-19.7,18.45S1295,406.21,1295,406.21Z"/><path class="cls-29" d="M1290.51,364.49s-10.12,6.13-12.13,17.89l-2,11.74,9.41-1.73,9.21,13.82s-6.5-16.69-6.38-27.57S1290.51,364.49,1290.51,364.49Z"/><path class="cls-29" d="M1327.67,457.5s24.2-5.56,38.52,7c0,0,17.33-69.23-5-77.71A10.65,10.65,0,0,0,1350,389C1344.78,394,1328.81,433.59,1327.67,457.5Z"/><path class="cls-39" d="M1232.58,865.36s4.92-.81,6,11.42h4s7.56-11.07-2.91-14.49C1239.71,862.29,1232.65,858.48,1232.58,865.36Z"/><path class="cls-39" d="M1219.52,875.66h52a0,0,0,0,1,0,0v1.58a2.13,2.13,0,0,1-2.13,2.13h-48.58a1.28,1.28,0,0,1-1.28-1.28v-2.43A0,0,0,0,1,1219.52,875.66Z"/><path class="cls-39" d="M1326,881.48a24.29,24.29,0,0,1,27.71,0s1.88-3.31-.6-8.73c0,0-17.26-6.43-25.58.87C1327.49,873.62,1324.11,878,1326,881.48Z"/><path class="cls-39" d="M1326.67,878.58l-.71,2.9s2.23,7.35,15.62,7.35c0,0,10.84-.53,12.09-7.35l.45-5s1.63,7.89-1,11.22-5.95,4.18-18.14,3.46C1334.94,891.21,1321.25,888.92,1326.67,878.58Z"/><circle class="cls-29" cx="1297.9" cy="424" r="2"/><circle class="cls-29" cx="1297.9" cy="453.37" r="2"/><circle class="cls-29" cx="1297.9" cy="490.09" r="2"/><polygon points="1573.34 879.7 1565.14 879.7 1561.97 662.92 1576.51 662.92 1573.34 879.7"/><polygon class="cls-40" points="1548.94 888.7 1540.41 888.7 1537.1 662.92 1552.25 662.92 1548.94 888.7"/><polygon points="1536.84 879.7 1528.64 879.7 1525.47 662.92 1540.01 662.92 1536.84 879.7"/><polygon class="cls-40" points="1512.44 888.7 1503.91 888.7 1500.6 662.92 1515.74 662.92 1512.44 888.7"/><path class="cls-40" d="M1482.36,642h119.29v2.59a18.36,18.36,0,0,1-18.35,18.35H1482.36Z"/><path class="cls-41" d="M1474.52,601.49s-75.44,50.8-90.45,76c-12.84,14.52-7.19,27.49-1.53,30.52,11.17,6,74.7,32.47,103.65,46.27l15.44-21.17-59-48.28,86-39.95V615.32Z"/><g class="cls-42"><polygon class="cls-43" points="1528.32 609.53 1430.73 680.45 1491.88 725.2 1558.75 632.61 1528.32 609.53"/></g><path class="cls-44" d="M1458.73,416.23s-7.06,3-10.15,16.59c-5.32,23.48-8.77,124.85-9.54,127h25.87c2.22,1.07,6.83-37.18,6.83-37.18Z"/><path class="cls-3" d="M1533.45,393.21c17.11,8.13,54.34,19,54.34,19s-5.79,66.24-9.69,105.12-2.43,50.78-2.43,50.78l-100.21-.19s-1.94-6.31-3.72-29.06c-.51-6.46-3.29-38-4.57-46.38-5.89-38.67-8.44-76.2-8.44-76.2,22.06-9,45.17-20,45.17-20Z"/><path class="cls-45" d="M1488.14,356.8s8.5,60.91,13.47,72"/><path class="cls-44" d="M1576.84,435l-19.26,21.09s-6,19.57,11.92,66.79c0,0-10,16.27-49.6,28.42l68.87,17.2Z"/><path class="cls-2" d="M1528,358.88l5.74,34.48s-14.92,12.67-30.4,6.83c0,0,2-17.57-1.59-27.52C1499.48,366.37,1528,358.88,1528,358.88Z"/><g class="cls-46"><path class="cls-47" d="M1528.28,355.48s3.36,37.15-25.08,35.07-10.07-27.88-10.07-27.88S1512.38,342.86,1528.28,355.48Z"/></g><path class="cls-5" d="M1507.36,557.59c-16.32-4.3-25,9.1-25,9.1h12.38A24.42,24.42,0,0,1,1507.36,557.59Z"/><path class="cls-21" d="M1513.3,559.82a32.23,32.23,0,0,0-5.94-2.23,24.42,24.42,0,0,0-12.62,9.09h23.48C1518.22,562.29,1513.3,559.82,1513.3,559.82Z"/><path class="cls-2" d="M1512.43,308.56C1495.82,307,1481,321,1479.24,339.75a37.63,37.63,0,0,0,1.53,14.74c1.07,6.06,2.63,15.29,8.35,23.13a35.26,35.26,0,0,1,2.06,3.11c1,1.7,1.3,2.72,2.16,4.28,3.42,6.13,3.87,4.48,16.78-.56a47.81,47.81,0,0,0,13-7.38c7.2-6.08,12.27-13,14-21.83a38.07,38.07,0,0,0,2.27-10C1541.1,326.52,1529,310.08,1512.43,308.56Z"/><path class="cls-48" d="M1544,345.8c1.14-16.34-4.48-20-4.48-20,.91-4.33-5.83-27.66-53.41-19.37-16.49,2.87-7.93,19.06-7.93,19.06-3.79,8.05,1.29,23.37,1.29,23.37-.28-6.64-.09-11.23.76-14.78a1.7,1.7,0,0,1,2.5-1.08c3.83,2.14,11.68,4.25,32.12,2.19,0,0,4.53-1.61,3.5,4.58,0,0,1.14,18.1,2.3,18.44s2.89-1.44,2.89-1.44c.59.34,4.43-.84,5.06,2.37a109,109,0,0,1,1.15,11.9C1531.93,366.12,1543.06,359.68,1544,345.8Z"/><path class="cls-2" d="M1522.69,360.33s-.67,1.06,2.56.47c7.47-1.35,15.92-19.7,1.53-14.42Z"/><path class="cls-48" d="M1502.59,351.32l1.23-.05a.82.82,0,0,0,.79-.86l-.12-3.15a.83.83,0,0,0-.86-.79l-1.23,0a.83.83,0,0,0-.79.86l.13,3.15a.81.81,0,0,0,.85.79"/><path class="cls-48" d="M1484.85,351.32l1.22-.05a.83.83,0,0,0,.8-.86l-.13-3.15a.83.83,0,0,0-.86-.79l-1.23,0a.83.83,0,0,0-.79.86l.13,3.15a.82.82,0,0,0,.86.79"/><polyline class="cls-49" points="1492.44 353.33 1488.14 362.02 1491.94 364.72"/><path class="cls-24" d="M1500.9,370.36l-9.56.29a.69.69,0,0,0-.42,1.22,14.7,14.7,0,0,0,2.7,2.78c1.4.66,4.37-.11,4.67-.26a9.2,9.2,0,0,0,3.07-2.81.69.69,0,0,0-.46-1.22"/><path class="cls-50" d="M1508.9,339.66a11.52,11.52,0,0,0-9.38.07"/><path class="cls-50" d="M1487.46,340.06a9.45,9.45,0,0,0-7.19.66"/><path class="cls-51" d="M1533.46,555.08s-19.78-7.54-23.68-7.91c-6.78-.64-11.33,7.32-19.71,16-2.3,2.39,6.65,2,10,2.36s6.79-4.31,8.15-4.92,4,0,4,0a4.45,4.45,0,0,0-3.88,2.12c-2.11,3-4.42,4.15-1.83,4.4s3.65-1.78,8.37-.41.8,4.18,12.84,5.13,21.1,2,21.58-5.18C1549.68,559.87,1533.46,555.08,1533.46,555.08Z"/><rect class="cls-52" x="1474.77" y="531.52" width="23.58" height="1.93" rx="0.7" ry="0.7"/><path class="cls-3" d="M1587.79,412.16c15.69,4.61,23.28,45.57,33.51,88.7,1.17,4.93,10.39,48,10.39,48s.3,7.8-5.7,11.71c-5.13,3.33-7.51,7.53-37.22,7.92-28.53.38-58.34-1.07-58.34-1.07s-8.11-19-.94-20.68c25.17-5.75,60.22-18.33,64.42-19.11-4.63-9.9-36.09-50.22-36.33-71.55,0,0,11.92-39.87,23.71-43.73A10.56,10.56,0,0,1,1587.79,412.16Z"/><g class="cls-53"><path class="cls-44" d="M1555.47,443.66l2.11,12.44S1575.12,414,1586,414c7.83,0,10.46,15.26,14.54,29.4S1614,525.87,1614,525.87s-10.31-2.16-16.06,1.91c0,0,23.33-5.88,28.37,20.62a9,9,0,0,1-5.82,10.14c-12.24,4.4-38.36,13.14-53.22,13.43,0,0,72,17.58,75.17-4.4s-5.43-81.41-5.43-81.41l-35.79-70.37-5.88-10-14.28.36-20.75,11.61Z"/></g><path class="cls-48" d="M1520.1,356.8s-2.14,11.18-6,15.56-15,5.89-18.08,7.45c-1.31,1.92-1.69,7.87.88,9.15s12.49-.49,17.6-3c7.14-3.56,7.75-9,8.12-14.3s.93-14.83.93-14.83Z"/><path class="cls-48" d="M1496,379.81c0-.26-3,.5-4.86-1.49-3.63-3.85-7.6-12.14-9-16.94-.26,1.67,6.48,26.21,14.78,27.58C1500.52,387.71,1496,379.81,1496,379.81Z"/><rect x="1158.45" y="566.67" width="497.96" height="22.78" rx="11.39" ry="11.39"/><rect class="cls-40" x="1125.48" y="566.67" width="497.96" height="22.78" rx="11.39" ry="11.39"/><path class="cls-45" d="M1528.62,352.57s1.4,53.7-27,76.26c0,0-75.09,96.62-62.57,131"/><circle class="cls-54" cx="1528.63" cy="351.92" r="2.01"/><ellipse class="cls-54" cx="1528.63" cy="353.59" rx="1.1" ry="2.01"/><path class="cls-21" d="M1368.21,537h135.57c4.5,0,7.42-3.64,6.54-8.13l-17-86.61a10.38,10.38,0,0,0-9.73-8.14H1348c-4.49,0-7.42,3.64-6.53,8.14l17,86.61A10.38,10.38,0,0,0,1368.21,537Z"/><path class="cls-5" d="M1364.56,537h135.57a6.4,6.4,0,0,0,6.54-8l-17-84.78a10.33,10.33,0,0,0-9.73-8H1344.35a6.41,6.41,0,0,0-6.54,8l17,84.78A10.32,10.32,0,0,0,1364.56,537Z"/><path class="cls-5" d="M1364.56,537h135.57a6.4,6.4,0,0,0,6.54-8l-17-84.78a10.33,10.33,0,0,0-9.73-8H1344.35a6.41,6.41,0,0,0-6.54,8l17,84.78A10.32,10.32,0,0,0,1364.56,537Z"/><path class="cls-21" d="M1429,567.63h15.4c3.55,0,6.33-2.92,5.59-5.85l-12.54-49.55a4.85,4.85,0,0,0-4.9-3.35l-15.4,0c-3.55,0-6.33,2.91-5.59,5.84l12.55,49.56A4.82,4.82,0,0,0,1429,567.63Z"/><path class="cls-5" d="M1430.81,559.8h45.92a0,0,0,0,1,0,0v8a0,0,0,0,1,0,0h-41.29a4.63,4.63,0,0,1-4.63-4.63V559.8A0,0,0,0,1,1430.81,559.8Z" transform="translate(2907.53 1127.61) rotate(-180)"/><path class="cls-5" d="M1426.12,567.63h15.4c3.55,0,6.33-2.92,5.59-5.85l-12.54-49.55a4.84,4.84,0,0,0-4.9-3.35l-15.4,0c-3.54,0-6.33,2.91-5.59,5.84l12.55,49.56A4.82,4.82,0,0,0,1426.12,567.63Z"/><ellipse class="cls-54" cx="1415.87" cy="481.66" rx="7.59" ry="9.52" transform="translate(113.63 1217.08) rotate(-48.24)"/><rect class="cls-54" x="1506.56" y="418.46" width="7.47" height="2.78" rx="1.21" ry="1.21" transform="translate(224.99 1317.2) rotate(-50.46)"/><polygon points="1638.51 888.7 1627.65 888.7 1623.44 589.45 1642.71 589.45 1638.51 888.7"/><polygon class="cls-40" points="1165.16 888.7 1153.85 888.7 1149.47 589.45 1169.54 589.45 1165.16 888.7"/><polygon points="1217.57 888.7 1206.71 888.7 1202.5 589.45 1221.77 589.45 1217.57 888.7"/><path class="cls-41" d="M1528.63,615.32s-87.17,59.34-102.74,88.54S1383,864.67,1383,864.67h28.43s49.63-87.84,51.54-117c17.13-11.89,122-76.47,122-132.32Z"/><path class="cls-3" d="M1475.72,582.94h108.37s-.16,13.5,1,25.87c-3.38,2.59-28.85,10.19-35.83,11-9,1-40.26-.93-51.14-1.75-22.11-1.64-30-17.47-30-17.47Z"/><g class="cls-55"><path class="cls-44" d="M1463.82,591l7.92,3.94s57.24,21,77.49,1.69,27.28-39.37,27.28-39.37,31.7,4.86,31.38,32.79-38.65,50.14-38.65,50.14S1421.29,646.58,1463.82,591Z"/></g><path class="cls-22" d="M1383.08,864.67l-5.85,9.27s-15,4.68-21.34,4.68-18.54,1.62-20.16,9-2,9-2,9h68.41l9.09-32Z"/><path d="M1485.44,752.21l9.24,10.15c1.23,3,14.92,8.84,29,.6,5.41-3.15-3.54-20.76-3.54-20.76-.18-1.8-4.37-6.13-6.16-5.88a32.52,32.52,0,0,1-8-.21l-7.26-3.05Z"/><polygon class="cls-40" points="1586.1 888.7 1574.79 888.7 1570.41 589.45 1590.48 589.45 1586.1 888.7"/><path class="cls-41" d="M1384.07,677.91c-9.61,13.71-7.5,22.17-5.44,26.1,7.42,14.16,78.61,36.42,107.56,50.22l15.44-21.17-59-48.28S1388,672.29,1384.07,677.91Z"/><path class="cls-21" d="M1298.21,563.4H1165.47l-19.25-81.88a5.37,5.37,0,0,1,5.23-6.61h121.69a5.37,5.37,0,0,1,5.24,4.14Z"/><rect class="cls-21" x="1162.91" y="563.4" width="192.76" height="3.27"/><path class="cls-5" d="M1295.9,563.4H1163.16l-19.26-81.88a5.38,5.38,0,0,1,5.24-6.61h121.69a5.37,5.37,0,0,1,5.24,4.14Z"/><ellipse class="cls-54" cx="1216.38" cy="519.08" rx="7.75" ry="8.98" transform="translate(8.18 1056.93) rotate(-47.11)"/><path class="cls-47" d="M168.93,879.36H153.24s-12.91,3.72-21.64,6.94c-8.57,3.16-21.53,4.49-24.46-3.85-1.74-5,15.09-16.07,27-20.08,14.43-4.86,17-1.3,16.44-1.19s17.38-1,17.38-1Z"/><polygon class="cls-2" points="145.44 890.91 124.28 890.91 124.28 871.74 157.37 864.39 145.44 890.91"/><path class="cls-2" d="M125.28,890.91h-15.7s-12.9,3.72-21.63,6.94C79.38,901,66.42,902.34,63.48,894c-1.73-4.94,15.09-16.07,27-20.08,14.43-4.86,17-1.3,16.44-1.19s17.38-1,17.38-1Z"/><path class="cls-56" d="M185.84,875s130.85,5.37,146.25,1.82S309.3,803,309.3,803s-4.15,27.32-21.57,23.84C241.25,817.52,186,846.54,186,846.54Z"/><path class="cls-2" d="M375,452.5c15,23.18,18.51,106.31,18,108.85-1.8,8.32-10.67,28-20.31,32.5-5.95-3.69-3.5-30.63-3.5-30.63l-9-122.77S371.38,446.83,375,452.5Z"/><g class="cls-57"><path class="cls-47" d="M389,558.17s-12.45-6.67-20.76-1.37l-3.74-34.54,7.79-3.51,3.64.8-1.15,30.19S387.24,552.22,389,558.17Z"/></g><path class="cls-47" d="M375,573.11s-3-5.61-5.71-4.15-2.91,3.06-2.91,3.06Z"/><path class="cls-2" d="M265.06,617.25s3.3,25,3.07,27.29h92.58v-26Z"/><g class="cls-58"><path class="cls-47" d="M271.17,605.38l-6.11,11.87s59.44,28.17,95.65,27.29l10-33.8Z"/></g><path class="cls-59" d="M311.14,425.74c-4.95.94-10.77-2.38-12.79-2.39,0,0-55.44,24.78-60.63,43.63-2.54,9.24,27.34,150.27,27.34,150.27l99.55,2.33c-1.11-18.38-3.07-39,1.43-65.91,4.94-29.53,16.95-41.1,8.68-64.58-8-22.82-14.55-48.64-14.55-48.64-3-1.17-9.71-4.59-30.92-11.68-.17,0-13.17-4-18.11-3"/><g class="cls-60"><path class="cls-61" d="M361.26,418.87,340,432.49S346,464.56,298.52,444l-12,39.1s32.85,79.76,46.73,86.89,56,19.14,49,45.46-162.43,1.85-162.43,1.85L210.54,444S307.84,376.7,361.26,418.87Z"/></g><path class="cls-22" d="M287.84,353s-4.46,18.36,3,34c3.81,8,7.52,36.26,7.52,36.26L368,360.43s-1,16.15-1.7,20.66c0,0,10.2-24.43,5.07-39s-26.57-28.29-45.69-26.69C290.87,318.32,287.84,353,287.84,353Z"/><circle class="cls-22" cx="298.43" cy="322.47" r="32.27"/><path class="cls-2" d="M298.39,423.24s13.37,14.52,30.44,11c0,0,.91-17.46,6.09-26.8,3.28-5.91-25.51-17.58-25.51-17.58Z"/><path class="cls-47" d="M308.7,392.06c-1.11,10.15-.6,30.81,21.31,32.87.69-5.35,2.09-12.37,4.91-17.45,3.28-5.91-25.51-17.58-25.51-17.58Z"/><g class="cls-62"><rect class="cls-63" x="296.81" y="381.07" width="0.95" height="1.01" transform="translate(-176.91 286.1) rotate(-40.69)"/></g><path class="cls-2" d="M301,363.76a39,39,0,0,0-.06,10.89c0,.13.05.26.06.39,0,9.09,3.73,17.16,9.79,24.94a54.22,54.22,0,0,0,12.3,10.93c12.85,8.49,12.93,10.32,18.24,4.84,2-2.07,2.35-3.23,6.51-6.58,7.26-5.85,11.28-13.6,14-19.47.35-.49.69-1,1-1.51a38.46,38.46,0,0,0,5.46-14.87c2.91-19.86-9.79-38.1-28.37-40.74a33,33,0,0,0-4.52-.32c-16.81,0-31.73,13.26-34.41,31.5"/><path class="cls-22" d="M340,375.9l-1.33-.36a.93.93,0,0,1-.66-1.14l.91-3.43a.94.94,0,0,1,1.14-.66l1.33.36a.92.92,0,0,1,.66,1.14l-.91,3.43a.94.94,0,0,1-1.14.66"/><path class="cls-22" d="M360.51,379.9l-1.33-.36a.92.92,0,0,1-.66-1.14l.91-3.43a.93.93,0,0,1,1.14-.66l1.33.36a.93.93,0,0,1,.66,1.14l-.91,3.43a.94.94,0,0,1-1.14.66"/><polyline class="cls-64" points="351.24 380.66 353.83 391.27 349 393.3"/><path class="cls-24" d="M335.73,398.12l11.76,3.32a.88.88,0,0,1,.14,1.64s-3,2.36-4.21,2.6c-1.94.39-5.38-1.49-5.7-1.76a11.76,11.76,0,0,1-2.93-4.43.88.88,0,0,1,.94-1.37"/><path class="cls-22" d="M368,360.43c-33.37,11.79-53.83,6-53.83,6l-15.63-3.68,14.53-41.57L368,340.52Z"/><path class="cls-22" d="M311.39,358.14s-6.74,32.46-3.83,37.37l-2.6,7.87s-12.87-14-9.19-32.38S311.39,358.14,311.39,358.14Z"/><path class="cls-2" d="M312.46,381.33c3.39,1.43,2.93.17,2.93.17l-.9-15.49c-2.53-1.6-4.47-2.27-5.91-2.27-6.81,0-2.58,14.87,3.88,17.59"/><path class="cls-65" d="M332.7,360a13,13,0,0,1,10.48,1.37"/><path class="cls-65" d="M359.43,365.51a10.65,10.65,0,0,1,7.74,2.49"/><path class="cls-66" d="M265.06,650.87s.62-4.07,3.07-6.33h92.58s3.6,1.2,5.43,6Z"/><path class="cls-56" d="M340.51,650.65s-47,203-33.12,223.67c12.24,5,29.9,6.48,42.83-5.39,21-19.23,15.92-218.35,15.92-218.35s-1.73-4.69-5.43-6h-16Z"/><path class="cls-66" d="M265.06,650.87s-28.57,37.22-13.18,82.19c15.83,46.27,18.88,110.7,18.73,153.18,2,2.67,31.15,16.78,47.84-7.53s22.06-228.06,22.06-228.06Z"/><path class="cls-66" d="M145.44,890.91s130.85,5.36,146.24,1.82-22.78-73.88-22.78-73.88-4.16,27.32-21.57,23.84c-46.48-9.28-101.75,19.74-101.75,19.74Z"/><path class="cls-21" d="M358.81,607.31,304.24,602c-1.81-.18-2.72-3-2-6.34l13.14-64.08c.69-3.33,2.71-5.88,4.51-5.7l54.58,5.3c1.8.18,2.72,3,2,6.34l-13.15,64.08C362.64,604.94,360.62,607.49,358.81,607.31Z"/><path class="cls-5" d="M360.28,607.46l-54.57-5.31c-1.81-.18-2.73-3-2-6.21l13-62.71c.67-3.26,2.69-5.75,4.5-5.58L375.74,533c1.81.18,2.73,3,2.05,6.21l-13,62.71C364.1,605.14,362.09,607.63,360.28,607.46Z"/><path class="cls-5" d="M360.28,607.46l-54.57-5.31c-1.81-.18-2.73-3-2-6.21l13-62.71c.67-3.26,2.69-5.75,4.5-5.58L375.74,533c1.81.18,2.73,3,2.05,6.21l-13,62.71C364.1,605.14,362.09,607.63,360.28,607.46Z"/><g class="cls-67"><path class="cls-5" d="M302.39,589S353.69,618.8,373,532.7c15.78-70.23,19.67,44.07,19.67,44.07l-24,88.41L315,655.09S290,646.52,302.39,589Z"/></g><ellipse class="cls-54" cx="344.34" cy="561.92" rx="5.89" ry="4.73" transform="translate(-265.9 313.05) rotate(-36.31)"/><path class="cls-2" d="M375,573.11c-2.71-1.15-13.38-3.78-15.8-3s-2.66,1.22-4.24,1.5-8.84,1.14-10.53.89c0,0-.93-.68-.85.87s1.08,1.85,2.29,2.65,11.79,1.55,11.79,1.55-7.46.6-10.56-.45c-1.88-.64-3.12-.72-1,3.13,2.18,4,3.66,14.19,8.7,14.63s17.2,1.75,21.9-3.65S377.54,574.17,375,573.11Z"/><path class="cls-68" d="M476,811l-27.33-21.67-85.4,25s-5.74,56.54,24.49,70S464,898.25,464,898.25h32.26c65,0,160.82-75.76,112.16-108.88-3.06-2.09-8.49-3-15.45-3-36.91,0-117,24.63-117,24.63"/><path class="cls-69" d="M361.17,888.28c33.37,19.54,96.27,10,96.27,10s18.47-51.74,5.8-62.24-124.72-12.09-124.72-12.09-3.5,43.85,22.65,64.36"/><path class="cls-6" d="M480,726.24s-5.26,39.91,16.92,45.31c15.93,3.89,34.26-20.47,21.77-40.21-28-44.31-21.93-75.27-37.14-104.65Z"/><path class="cls-70" d="M407.7,597.28c-5.22.94-10.36,1.88-12.49,1.87,0,0-60.35,45.09-65.83,63.94-2.68,9.24,4.82,83.47,7.6,135.3,1.58,29.51,2.57,53.61,6.68,48,0,0,3.34-32.77,34.12-32.19,33.19.61,70.64,21.58,82.23,13.34,20.86-14.83,27.84-9.82,27.84-9.82,12.46-24.15-9.42-34.24-4.68-61.15,5.21-29.53,6.28-61.2,5.14-86.06-1-22.07-6.81-43.85-6.81-43.85-6.9,0-27.77-28.08-60.19-31.25a6.22,6.22,0,0,0-.64,0c-2.47,0-7.76.93-13,1.86"/><path class="cls-6" d="M440,610s31.41,7.68,47,46c-1-22.08-5.54-29.32-5.54-29.32-3.51-3.34-27.77-28.08-60.19-31.25Z"/><g class="cls-71"><polygon class="cls-6" points="421.17 595.29 487.04 595.44 487.19 656.16 421.31 656.01 421.17 595.29"/></g><path class="cls-69" d="M338.2,842.22C344.12,866.87,438.25,884,438.25,884l4.37-64.24S418.13,794.64,388,789.46a55.86,55.86,0,0,0-7.13-.76c-35.18-1.37-47,35.53-42.71,53.52"/><path class="cls-72" d="M548.09,830.57c-19.31,21.72-56.87,51.14-56.87,51.14s-3.47,15.83,9.14,20.2c0,0,87.46-42.4,99.83-54.56s18.9-31.32,13.48-40.73c-3.29-5.71-8.29-8.09-14.22-8.09-15.52,0-37.38,16.33-51.36,32"/><path class="cls-73" d="M600.19,847.35s-58.8,37.75-90.06,18.88c-10.71,9.06-18.91,15.48-18.91,15.48s-.09.39-.18,1.07c6,3.82,15.35,9.38,23.45,12.18C539.76,882.42,591,856.44,600.19,847.35Z"/><path class="cls-27" d="M492.76,877.64c-4.55,1-13.87,3.58-18.52,4.83-5.36,1.44-13.36.52-21.79-.4-12.44-1.36-25.83-2.72-33,3.51-7.53,6.5-5,30.22,35.59,27.92s64.67-6,50.15-29c0,0-6.93-7-11.53-7a4,4,0,0,0-.86.09"/><path class="cls-27" d="M508.66,883.11c-17,21.18,6.5,27.59,46.58,34.42s43.54-11.12,36.78-18.42c-10.85-11.74-39.64-9.54-52.41-14.57-4.49-1.76-13.47-5.35-17.87-6.87a4.25,4.25,0,0,0-1.41-.22c-4.61,0-11.67,5.66-11.67,5.66"/><path class="cls-6" d="M325.27,646.54c-3.22,9.27-4.94,27.87-4.48,40.22,1.94,51.22,28.89,82.75,41,86.36,14.93,4.45,40.27-7,29.86-21.12-26.48-35.94-14.79-69-22.39-99.63,12.38-26,32.47-37.79,32.47-37.79L393.58,599c-18.07,6.65-64.41,36.31-68.31,47.53"/><path class="cls-72" d="M399.21,599.61s13.38,14.53,30.44,11c0,0,.91-17.46,6.09-26.79,3.28-5.92-25.5-17.58-25.5-17.58Z"/><path class="cls-73" d="M409.52,568.44c-1.1,10.15-.6,30.81,21.32,32.86.68-5.34,2.08-12.36,4.9-17.44,3.28-5.92-25.5-17.58-25.5-17.58Z"/><g class="cls-74"><rect class="cls-75" x="397.63" y="557.45" width="0.95" height="1.01" transform="translate(-267.54 394.49) rotate(-40.69)"/></g><path class="cls-6" d="M393.58,599c.41,10.66,16.67,24,16.67,24l4.43-8.14c16.75,2.7,22.49-5,22.49-5l3.75,4.24c.41-16.55-9.29-17.72-9.29-17.72-.92,5.6-2.35,5.8-2.35,5.8l-4,8.86-6.76-8.15c-9.05,1-16.48-11.6-16.48-11.6Z"/><path class="cls-76" d="M426,614c-2.05.31-7.73-8.12-7.73-8.12l-3.56,9c16.75,2.7,22.49-5,22.49-5,.16-2.31-5.37-6.44-5.37-6.44S428,613.67,426,614"/><path class="cls-77" d="M369.73,767.14l-7.29,8.18,9.49,6.12a19,19,0,0,0,7.15-11c.83-3.54-1.27-4.46-3.68-4.46a19.58,19.58,0,0,0-5.67,1.11"/><path class="cls-72" d="M366.55,773.74c1.79,4.34,12.58,9.57,25.74,16.89,19.75,11,53.21,26.21,53.21,26.21l7.59-15.08s-44.4-34.65-65.21-51.45a5.79,5.79,0,0,0-3.64-1c-8.25,0-23.8,9.54-17.69,24.44"/><path class="cls-73" d="M366.55,773.74c1.79,4.34,12.58,9.57,25.74,16.89,12.41,6.91,30.25,15.49,41.78,20.91l1.75-.42-70.62-45a16.86,16.86,0,0,0,1.35,7.67"/><path class="cls-21" d="M564.78,822.49H429c-4.5,0-7.43-3.46-6.55-7.72l17-82.12a10.27,10.27,0,0,1,9.75-7.71H585c4.5,0,7.43,3.45,6.55,7.71l-17,82.12a10.28,10.28,0,0,1-9.75,7.72"/><path class="cls-5" d="M452.28,727.24a10.27,10.27,0,0,0-9.75,7.72l-17,82.12c-.88,4.26,2.05,7.72,6.55,7.72H567.82a10.28,10.28,0,0,0,9.75-7.72l17-82.12c.88-4.26-2.05-7.72-6.55-7.72Z"/><path class="cls-24" d="M523,776c-1.18,5.1-6.5,9.23-11.89,9.23s-8.78-4.13-7.6-9.23,6.5-9.23,11.88-9.23,8.79,4.13,7.61,9.23"/><path class="cls-72" d="M364,801.43c-7.2,9.19-4.55,31,11.89,43.68s138.7,56.65,138.7,56.65c16.76-3.83,12.15-19.83,12.15-19.83s-49.92-31.08-75.59-53.67c-18.94-16.67-48.79-34.33-69.48-34.33-7.34,0-13.53,2.22-17.67,7.5"/><path class="cls-73" d="M375.89,845.11c16.45,12.71,138.7,56.65,138.7,56.65A23.3,23.3,0,0,0,518,900.7c-14.78-4.9-61.92-21.16-108.9-44.34-38.49-19-47.45-41.38-48.73-45.16-1.16,10.52,3.49,24.63,15.49,33.91"/><path class="cls-6" d="M359.47,768.71c1.31,10.36,12.46,12.73,12.46,12.73-5.21-14.78,15.63-29.32,21.8-26.44,0,0,3.39-11-5.38-13.47a8.74,8.74,0,0,0-2.37-.29c-9.83,0-28.44,12.26-26.51,27.47"/><path class="cls-72" d="M401.79,540.14a38.24,38.24,0,0,0-.06,10.89c0,.13,0,.25.06.38,0,9.09,3.73,17.16,9.78,24.94a53.75,53.75,0,0,0,12.3,10.93c12.86,8.5,12.93,10.32,18.24,4.84,2-2.06,2.35-3.22,6.51-6.57,7.26-5.85,11.28-13.6,14-19.47.34-.5.68-1,1-1.51a38.29,38.29,0,0,0,5.46-14.88c2.92-19.86-9.79-38.09-28.37-40.73a31.53,31.53,0,0,0-4.52-.32c-16.81,0-31.73,13.26-34.4,31.5"/><path class="cls-78" d="M404.53,504.48a46,46,0,0,0-13.68,23.93c-2.45,11.55,8.69,38.75,17,42.56-1.34-3.6,2.21-10.76,4-15.4,1.42-3.68,2.69-10.8,3.5-11.09l.73,12.4c3.54.55,6.79-19.31,6.79-19.31,7-.6,6.09-14,6.09-14,21.49,10.82,34.09,11.41,38.7,8.65,1,4.84,2.81,11.27.82,20.88,0,0,10.41-17.41,7.2-27.71,5.7-10.66,9.6-24.6-32.54-30.48a76.94,76.94,0,0,0-10.5-.77c-21.15,0-28.06,10.37-28.06,10.37"/><path class="cls-72" d="M413.28,557.71c3.39,1.42,2.93.16,2.93.16l-.9-15.49c-2.52-1.59-4.47-2.26-5.91-2.26-6.81,0-2.58,14.87,3.88,17.59"/><path class="cls-22" d="M440.83,552.27l-1.34-.35a.93.93,0,0,1-.66-1.14l.91-3.43a.93.93,0,0,1,1.14-.66l1.34.35a1,1,0,0,1,.66,1.14l-.92,3.43a.92.92,0,0,1-1.13.66"/><path class="cls-22" d="M461.33,556.27l-1.33-.35a.94.94,0,0,1-.66-1.14l.91-3.43a.93.93,0,0,1,1.14-.66l1.33.35a.93.93,0,0,1,.66,1.14l-.91,3.43a.93.93,0,0,1-1.14.66"/><path class="cls-79" d="M450.23,554.77a9.36,9.36,0,1,1-5.81-11.89A9.37,9.37,0,0,1,450.23,554.77Z"/><polyline class="cls-80" points="452.06 557.04 454.65 567.65 449.82 569.68"/><path class="cls-79" d="M471.15,558.83a8.54,8.54,0,1,1-5.3-10.86A8.55,8.55,0,0,1,471.15,558.83Z"/><path class="cls-24" d="M436.55,574.5l11.76,3.32a.87.87,0,0,1,.14,1.63s-3,2.37-4.21,2.61c-1.94.39-5.38-1.49-5.7-1.76a11.76,11.76,0,0,1-2.93-4.43.88.88,0,0,1,.94-1.37"/><path class="cls-79" d="M450.67,553.48s3.06-1.64,4.08.65"/><path class="cls-65" d="M433.53,536.39A13,13,0,0,1,444,537.75"/><path class="cls-65" d="M460.25,541.88a10.63,10.63,0,0,1,7.74,2.5"/><path class="cls-2" d="M366.83,614.81s-67.23-45.56-78.44-55.9l-5.5-38.25c-4.13-48.21-24.16-76.55-38.58-63.88-26.52,23.32,13.21,113,13.21,113s4.51,11.56,15.54,18.29c24.63,15,80.42,40.62,80.42,40.62C353.29,622.59,366.83,614.81,366.83,614.81Z"/><path class="cls-2" d="M353.89,614.85l1.82-7.62s18.56,6.29,21.06,7.17,6.2,6.84,6.2,6.84,16.78,11.87,17.5,12.33c0,0,2.4.94,2,1.47-1.64,2.48-5.61,1.86-7.35,1.14l-13.38-5.25s-1.39,2.73-2.21,4c0,0-4.41,4.44-9.35,4.78,0,0-7,.79-10.61-4.42l-6.14-6.55Z"/><polygon class="cls-81" points="1153.85 751.99 1168.75 744.92 1171.3 756.88 1157.42 764.16 1153.85 751.99"/><path class="cls-22" d="M1169.44,749.7c-.53-1.62-2.83-3.76-2.83-3.76s2.59-4.74,6.87-4.24c2.72-2.69,23.43-3.3,24.5-1.58,1.36,2.17-2.14,6.49-12.41,10.66a32.54,32.54,0,0,1-7,1.72,43.59,43.59,0,0,0-7.22,4.38S1170.07,751.63,1169.44,749.7Z"/><polygon class="cls-81" points="1041.52 654.6 1040.04 670.84 1057.35 669.84 1055.26 655.69 1041.52 654.6"/><path class="cls-22" d="M1041.11,659s10.77-2.46,14.82,1.19l-.52-6.52s10.67-3,12.34-8c.15-.45,2.52-5.2-.29-6.61-.88-.45-7.47,1.36-10.18,2.31-8.6,3-15.28,8.2-15.53,9.33S1041.11,659,1041.11,659Z"/><path class="cls-27" d="M882.82,801.61l47.58-23.4s78.47-25.49,93.47-23.57c0,0,12.19-63.93,15.88-92.4,3.51-2.89,14.74-3.69,18.16-.69,8.61,32.88,11.85,100.21,10.64,102.25-3.87,6.49-8,10.88-13.2,15.87s-93.63,36.45-93.63,36.45Z"/><path class="cls-27" d="M924,824.38l148.34-51.63a39.17,39.17,0,0,0,16.65-5.56c23.12-13.64,58.46-15.5,74-22.22,3.63,2.43,7,9.58,4.45,16.64s-152.2,84.7-152.2,84.7Z"/><path class="cls-82" d="M1016.85,834.92S996.11,779.58,940.43,780c-37.79-12.76-195.78,45.24-195.78,45.24s-25,47.25-4.41,61.38c.34,8.37,7.89,11.89,26,18.85a19.22,19.22,0,0,0,11.39.39c16.47,5,49.72,5.17,71.36,6.56a26.72,26.72,0,0,0,9.42-1.1l-2.58,1.62,159.38-66.6C1018.92,841.07,1016.85,834.92,1016.85,834.92Z"/><g class="cls-83"><path class="cls-27" d="M785.22,816.12c24.25-5.63,113.85-38.15,144.11-41.45l25.29-6.58s-82-45.18-119.42-38.56-141.4,50.19-141,56.07S804,866.73,785.22,816.12Z"/><path class="cls-27" d="M872.61,924.71l-14.24-13.42s8.58-12.89,1-22.39c4.5-3.48,10.18,9.42,18.22,6.84,46.75-15,112.06-66.72,128.62-61.18,29.17,9.75,49.13,36,49.13,36s-28.23,39.37-33,40.57S872.61,924.71,872.61,924.71Z"/></g><path class="cls-82" d="M805.45,882.26s-26,15.08-13.06,29.85c-4.32,21.53-11.15,49.55-11.15,49.55l-81.93,7L697,994.05s72.91,5.79,97.1,7.1,36-46.83,49.85-69.28c10-16.08,14.45-20.58,14.45-20.58Z"/><g class="cls-84"><path class="cls-27" d="M792.39,912.11l-4,51.64s4.81,7.46,5.49,11.31c0,0-31.16-6.41-43.1-6.22s-51.79,3.91-51.79,3.91l-1.1-16.34S785.42,910.54,792.39,912.11Z"/></g><path class="cls-82" d="M738.38,825.7s-14,.73-39,11.95c-24.72,11.1-44.61,25.29-55.73,38.72-6,7.24-29.62,44.24-29.62,44.24l28,3.57,27-30.51,58.12-16.83S755.26,837.88,738.38,825.7Z"/><g class="cls-85"><path class="cls-27" d="M634.83,928.33l27-36.41s-2.07-8.09-4.5-11.12c0,0,14.51,4.86,15.5,7.3l60.85-36.55,23.18,36.93Z"/></g><path class="cls-82" d="M775.4,890.59l2.29-1.41s7.11,10,2.79,17.52c0,0-8,2.61-13.78,1.25-5.54-1.3-14.37-4.44-17.31-11.25Z"/><path class="cls-81" d="M756.89,888.48l20.8.7s1.13,5.31-7.57,13.1a6,6,0,0,1-7.67.26l-6.21-4.78Z"/><g class="cls-86"><path class="cls-87" d="M774.3,884.37l3.39,4.81s-15.44,16.42-22,14.4-6.84-11.76-6.84-11.76Z"/></g><path class="cls-81" d="M777.91,802.35c-20.7-6.78-43.69,6.69-51.34,30.08a49.21,49.21,0,0,0-2.32,19.22c-.41,8-1.1,20.24,3.9,31.89,2.52,5.87,2.27,7.32,3.23,10.64C734,903,735,901,752.91,898.35a62.78,62.78,0,0,0,18.65-5.64c10.94-5.66,19.4-13,24.21-23.74a50.09,50.09,0,0,0,5.8-12C809.21,833.56,798.62,809.12,777.91,802.35Z"/><path class="cls-88" d="M812.62,849c4.67-14.28-5.18-29.31-5.18-29.31s7.88-12.27-20.73-23.09C743.62,780.28,728.2,801,729.39,814c-7.18,9.15-5.15,30.15-5.15,30.15,1.93-10.49,5.48-19.66,8.4-24.15,3.26,3.94,12.24,9.88,46.3,12.73,0,0-9.66,18.64-3.24,22,0,0-1.83,12.81-.45,13.59s9.12-12.1,9.12-12.1c.66.61-3.37,11-3.49,15.22-.16,5.38-.48,14.66-3.19,17.78C787.1,888.55,808.64,861.15,812.62,849Z"/><path class="cls-88" d="M788.73,879.93c-.5.53-.79.82-.79.82A10.32,10.32,0,0,0,788.73,879.93Z"/><path class="cls-81" d="M775.94,871.28s-1.16,1.15,3.13,1.34c9.9.45,26-20.47,6.13-17.93Z"/><path class="cls-21" d="M625.66,906.89l63.26,34.38a4.35,4.35,0,0,1,2.24,4.38l-5.91,46.28a4.37,4.37,0,0,1-6.4,3.28l-63.29-34.12a4.36,4.36,0,0,1-2.25-4.39l6-46.53A4.36,4.36,0,0,1,625.66,906.89Z"/><path class="cls-5" d="M621.86,906.4l63.26,34.38a4.35,4.35,0,0,1,2.24,4.38l-5.91,46.28a4.37,4.37,0,0,1-6.4,3.29l-63.29-34.12a4.37,4.37,0,0,1-2.25-4.39l6-46.54A4.36,4.36,0,0,1,621.86,906.4Z"/><path class="cls-87" d="M693.11,972.72a30.09,30.09,0,0,0-1.82-7.26,2.63,2.63,0,0,0-2.47-1.47,10.44,10.44,0,0,1-2.39,4.75c-.62.74-3.73,1.62-4.24,1.88-.94.5,3.74,2,3.74,2Z"/><path class="cls-81" d="M698.94,972.75l-13-.08s-5.26-2.26-6.52-4.79-10.61-7.45-10.61-7.45-4.84-1.06-7.41.49-6.4,17.53-1.08,23.13,15,9.65,17.7,9.49,19.1-1,19.1-1Z"/><path class="cls-81" d="M613.74,923.14s-5,2.34-5.38,2.58-3.7,16.56-2.31,18,11.62,9,12.89,9.18,5.75-3.92,6.12-4.47,3.9-9.6,3.46-10.84c0,0,2-2.45,1.89-3.13C630,932.41,621.85,924.77,613.74,923.14Z"/><path class="cls-24" d="M641.47,949.71a7.52,7.52,0,0,0,1.5,8.8,4.33,4.33,0,0,0,7-1,7.52,7.52,0,0,0-1.5-8.79c-2.35-2.16-5.5-1.72-7,1"/><path class="cls-22" d="M754.27,857.64l1.49.32a1,1,0,0,0,1.22-.78l.83-3.81a1,1,0,0,0-.78-1.22l-1.48-.32a1,1,0,0,0-1.22.78l-.84,3.81a1,1,0,0,0,.78,1.22"/><path class="cls-22" d="M732.22,851.22l1.49.33a1,1,0,0,0,1.21-.78l.84-3.82a1,1,0,0,0-.78-1.21l-1.49-.33a1,1,0,0,0-1.21.78l-.84,3.82a1,1,0,0,0,.78,1.21"/><polyline class="cls-89" points="740.9 856.64 733.03 865.7 736.73 870.12"/><path class="cls-24" d="M747.26,881.51l-13.16-2.68a1,1,0,0,0-1,1.53s1.74,3.82,2.8,4.66c1.7,1.36,6,1.26,6.46,1.15a12.75,12.75,0,0,0,5.09-2.85,1,1,0,0,0-.23-1.81"/><path class="cls-90" d="M768.13,847.72a14.29,14.29,0,0,0-10.92-3.94"/><path class="cls-90" d="M740.52,837.71a11.7,11.7,0,0,0-8.82-1.47"/><path class="cls-88" d="M1210,656s84.1,90,78.8,96.41-22.33,16.38-22.33,16.38l-50.88-28.49Z"/><path class="cls-88" d="M1079.91,660s-86.77,86.74-80.29,92,38.17,9,38.17,9l41.32-46.3Z"/><path class="cls-88" d="M1089.67,662.53c2.6,25.83,33,41.18,58.87,38.59a47,47,0,0,0,42.07-51.48c-.88-8.7-3.9-16.77-12.31-21.41-14.06-7.75-22-22.39-39.17-20.66a46.91,46.91,0,0,0-35.2,21.92C1088.13,634.33,1088.59,651.77,1089.67,662.53Z"/><path class="cls-88" d="M1070.68,777.79c-.71-12.6,0-68.33.37-95.63a33.71,33.71,0,0,1,12.68-25.73l20.67-16.56a33.44,33.44,0,0,1,17.53-7.15l32.22-3.25a33.41,33.41,0,0,1,18.8,3.63l27.28,14.26a33.79,33.79,0,0,1,17.68,24c4.65,26.33,13.69,77.79,15.47,90.08.59,4.07,1.35,8.55,2.16,13,3.07,16.9-5.51,33.41-20.74,39.61L1191,823.73a33.34,33.34,0,0,1-9.22,2.29l-47.75,4.8a33.1,33.1,0,0,1-9.48-.41l-25.22-4.74c-16.16-3-27.85-17.52-28.21-34.68C1071.06,786.44,1070.91,781.9,1070.68,777.79Z"/><path class="cls-91" d="M1164.39,637.76s6.41-1,6.22,7.11-6.37,74.37.49,90"/><path class="cls-91" d="M1114.86,642.75s-9.31-.81-1.37,17.38,19,78.7,9.15,85.85"/><path class="cls-26" d="M1294.67,797.15l-12.44-13.67s-92.39,31.95-131.09,44c0,0-50.71-34.92-90.61-54,0,0-28.48-22.47-42.85-21.85l113.45,144.48Z"/><path class="cls-92" d="M1092,682.49l-.56-2.51.44-8.93a2.66,2.66,0,0,0-1.24,1.34c-1.57,3.2-4.31,10.52-3.89,14.89C1090,689.09,1092,682.49,1092,682.49Z"/><rect class="cls-5" x="1093" y="662.66" width="105.31" height="60.69" rx="4.02" ry="4.02" transform="translate(2354.92 1267.88) rotate(174.26)"/><circle class="cls-54" cx="1145.51" cy="693.02" r="7.85"/><path class="cls-92" d="M1219.16,703.46s-11.62-9.11-13.37-10.68c-8.1-6.75-10.6-15.34-11.83-16.64-1.83-1.93-6.11-7-7.16-5.49s1.59,5.35,1.59,5.35-2.9-5-7.05-2.45c-4.61,2.87-6.42,18.62-2.29,22.47,1,2.11,8.09,5.42,13.73,7.45,5.21,3.41,18.61,13,18.61,13Z"/><path class="cls-92" d="M1196.91,685l.43-2.54-.9-8.9a2.69,2.69,0,0,1,1.3,1.27c1.74,3.12,4.86,10.28,4.66,14.67C1199.23,691.51,1196.91,685,1196.91,685Z"/><path class="cls-93" d="M1198,715.36s40.54,57.9,73.67,57.31,16-30.2-1.91-43.89-60.09-33-60.09-33Z"/><path class="cls-92" d="M1070.68,702.06s11.13-9.69,12.8-11.35c7.74-7.16,9.8-15.87,11-17.24,1.73-2,5.74-7.29,6.86-5.84s-1.31,5.42-1.31,5.42,2.64-5.16,6.92-2.81c4.75,2.63,7.37,18.26,3.45,22.33-.92,2.16-7.8,5.82-13.33,8.14-5,3.68-17.92,14-17.92,14Z"/><path class="cls-93" d="M1092.41,712.85s-52.39,76.27-85.51,77.38-18.32-31.9-1.18-46.49,74-49.81,74-49.81Z"/><polygon class="cls-72" points="1152.85 622.27 1158.41 642.54 1143.22 657.14 1123.58 644.86 1126.44 624.33 1152.85 622.27"/><g class="cls-94"><path class="cls-95" d="M1156,618.84s-1.93,22.91-9.09,24.64-25.07-14.58-23.83-19.9S1156,618.84,1156,618.84Z"/></g><path class="cls-27" d="M1144.43,888.4c20.34,25.22-7.7,32.92-55.49,41.17s-52-13.17-43.92-21.9c12.92-14,47.27-11.47,62.5-17.5,5.34-2.11,16-6.42,21.29-8.24a5.06,5.06,0,0,1,1.68-.26c5.5,0,13.94,6.73,13.94,6.73"/><path class="cls-18" d="M1316.81,790.63c8.61,10.93,5.51,36.93-14.08,52.13s-165.34,67.89-165.34,67.89c-20-4.53-14.53-23.62-14.53-23.62s59.48-37.2,90.05-64.2c22.56-19.93,58.12-41.07,82.8-41.12,8.76,0,16.15,2.63,21.1,8.92"/><path class="cls-26" d="M1302.73,842.76c-19.59,15.2-165.34,67.89-165.34,67.89a26.08,26.08,0,0,1-4.1-1.26c17.63-5.87,73.82-25.38,129.81-53.13,45.87-22.74,56.51-49.48,58-54,1.41,12.54-4.1,29.39-18.4,40.49"/><path class="cls-27" d="M1126.73,886.75c-25.79,19.61-.42,33.81,44,53.28s53.6-.31,47.89-10.71c-9.18-16.72-43.14-22.48-56.47-32-4.69-3.34-14-10.09-18.7-13.12a5.05,5.05,0,0,0-1.57-.66c-5.34-1.33-15.15,3.19-15.15,3.19"/><path class="cls-18" d="M982.85,750.47c-11,8.56-14.2,34.54,1.16,54s144.21,105.58,144.21,105.58c20.51.4,19.79-19.45,19.79-19.45s-48.83-50.38-72-83.93c-17.12-24.76-46.57-53.82-70.52-59.79-8.5-2.11-16.3-1.32-22.62,3.59"/><path class="cls-26" d="M984,804.47c15.37,19.45,144.21,105.58,144.21,105.58a27.58,27.58,0,0,0,4.29-.24c-15.7-9.93-65.57-42.36-113.27-82.74-39.07-33.08-43-61.59-43.37-66.33-4.39,11.84-3.08,29.52,8.14,43.73"/><path class="cls-95" d="M1172.3,581.85s1.26-2.74,3.48-1.7,1.79,13.17-4.3,19.44c-2.07,2.13-4.78.31-4.78.31Z"/><path class="cls-95" d="M1102,588.92s-1.79-2.44-3.75-1,.86,13.25,8.08,18.19c2.46,1.68,4.75-.65,4.75-.65Z"/><path class="cls-72" d="M1101.83,581.48c-2-19.55,11.81-36.94,30.77-38.85s35.92,12.39,37.89,31.94a36.9,36.9,0,0,1-.16,8.74h0c.72,13.85-3.41,18.44-5.18,26.33s-12.06,16.8-16.83,20.11a16.91,16.91,0,0,1-13.78,1.39c-5.33-2.3-17.19-9-20.5-16.36s-8.26-11.06-10.31-24.77h0A36.74,36.74,0,0,1,1101.83,581.48Z"/><path d="M1134.35,559.38a41.32,41.32,0,0,1,25.73,4.36s4.93,16.78,7.28,18.19,1.38,16.53,1.38,16.53,5.61-12.8,4.7-23,4.16-29.18-14.42-32.36c-6.67-12.9-46.37-9.52-56.84-3.36-12.12,7.14-6.86,15.51-1,20.13C1109.55,566.49,1131.67,559.81,1134.35,559.38Z"/><path d="M1134.36,559.38a41.22,41.22,0,0,0-24.34,9.4s-1.5,17.42-3.52,19.27,2,16.91,2,16.91-8.12-11.86-9.26-22-1.62-30.67,16-37.49c11-4.24,17.3-4.45,17.3-4.45S1139,559.19,1134.36,559.38Z"/><path d="M1161.58,559.31l-1.5,4.43s-5.64-5.15-17.74.94c-14.61,7.35-26.88,10.38-32.32,4.1C1110,568.78,1122.12,546.68,1161.58,559.31Z"/><path class="cls-24" d="M1146.9,612.15l-14.48,1.65a1,1,0,0,0-.48,1.89s3.07,3.36,4.45,3.88c2.21.83,6.63-.72,7-1a14,14,0,0,0,4.31-4.65,1,1,0,0,0-.85-1.79"/><rect x="1149.93" y="585.84" width="3.19" height="5.64" rx="0.96" ry="0.96" transform="translate(2356.18 1059.13) rotate(174.26)"/><rect x="1119.71" y="588.88" width="3.19" height="5.64" rx="0.96" ry="0.96" transform="translate(2296.19 1068.22) rotate(174.26)"/><path class="cls-96" d="M1157.83,579.87s-7-5.61-12,1.21"/><path class="cls-96" d="M1113.68,584s6-6.61,12.09-.65"/><path class="cls-97" d="M1219.7,781.17s-9.85-13.37-25.58-14.84l-91.78,9.23s-10.63,5.91-14.86,12.09"/><polyline class="cls-89" points="1138.84 592.02 1135.8 603.63 1141.07 605.95"/><rect class="cls-98" x="739.55" y="262.89" width="167.34" height="127.17" rx="9.57" ry="9.57" transform="translate(1646.44 652.94) rotate(180)"/><rect class="cls-24" x="743.7" y="286.71" width="159.04" height="99.14" rx="8.24" ry="8.24" transform="translate(1646.44 672.57) rotate(180)"/><circle class="cls-24" cx="896.2" cy="274.33" r="2.76"/><circle class="cls-24" cx="884.2" cy="274.33" r="2.76"/><polygon class="cls-98" points="779.34 390.06 754.1 390.2 743.7 409.86 779.34 390.06"/><path class="cls-98" d="M826.46,372.26l2.73-12.4q2.05-9.35,4.1-18.69c.08-.37.21-.52.61-.52.88,0,1.75-.06,2.63-.1l23.26-1h.61c0,.18,0,.31-.07.43q-3.42,15-6.83,30c-.1.44-.26.62-.73.65-4,.29-8,.61-12,.92l-11,.86-3.32.25C826.42,372.48,826.44,372.37,826.46,372.26Zm10.62-11.74a2.33,2.33,0,0,0-1.64.2,5,5,0,0,0-2.58,5,2,2,0,0,0,2.83,1.58,5,5,0,0,0,2.87-4.4A2.25,2.25,0,0,0,837.08,360.52Zm-.93-9.84a2,2,0,0,0,2.8,1.52,4.84,4.84,0,0,0,2.72-5.34,2,2,0,0,0-2.85-1.37,5,5,0,0,0-2.8,4.36A7.55,7.55,0,0,0,836.15,350.68Zm4.73,7.21a1.94,1.94,0,0,0,2.76,1.4,4.87,4.87,0,0,0,2.69-5.1,2,2,0,0,0-3-1.42,4.91,4.91,0,0,0-2.58,4.26A8.51,8.51,0,0,0,840.88,357.89Zm5.1,6.93a1.94,1.94,0,0,0,2.93,1.58,5,5,0,0,0,2.5-4.95,1.9,1.9,0,0,0-2.88-1.45,4.82,4.82,0,0,0-2.6,4.14C846,364.46,846,364.65,846,364.82ZM849.16,350a2,2,0,0,0,3,1.58,4.81,4.81,0,0,0,2.36-4.94,1.93,1.93,0,0,0-2.91-1.41,4.9,4.9,0,0,0-2.49,4.28C849.13,349.58,849.13,349.78,849.16,350Z"/><path class="cls-98" d="M776.62,326.34l.17-.37,13.26-25.52a.46.46,0,0,1,.6-.3L812.13,304l2.88.52-13.84,27.14Zm22.25-6.26a5.08,5.08,0,0,0-3,4.2,1.49,1.49,0,0,0,2.18,1.55,5,5,0,0,0,3-4.21A1.48,1.48,0,0,0,798.87,320.08Zm-7.08,4.59a5.06,5.06,0,0,0,3.1-4.25,1.45,1.45,0,0,0-2.08-1.51,5,5,0,0,0-3.08,4.27A1.45,1.45,0,0,0,791.79,324.67Zm-5.88-1.13a5.08,5.08,0,0,0,3.13-4.22,1.44,1.44,0,0,0-2-1.53,5,5,0,0,0-3.12,4.27A1.41,1.41,0,0,0,785.91,323.54Zm18.16-10.12a5,5,0,0,0,3.06-4.11,1.47,1.47,0,0,0-2-1.58,4.92,4.92,0,0,0-3.09,4.18A1.46,1.46,0,0,0,804.07,313.42ZM798,312.31a4.93,4.93,0,0,0,3.06-4.09,1.44,1.44,0,0,0-2.07-1.55,4.92,4.92,0,0,0-3,4.13A1.43,1.43,0,0,0,798,312.31Zm-5.91-1a5,5,0,0,0,3.17-4.23,1.41,1.41,0,0,0-2-1.43,5,5,0,0,0-3.13,4.16A1.42,1.42,0,0,0,792,311.27Z"/><path class="cls-98" d="M824.11,371.41l-15.44-12.55a.58.58,0,0,1-.19-.65q2.52-13.43,5-26.85c.17-.89.35-1.79.53-2.73a3.71,3.71,0,0,1,.39.26q8.05,5.63,16.11,11.24a.8.8,0,0,1,.4,1q-2.67,12.17-5.32,24.36c-.43,2-.87,4-1.31,6ZM821.19,357a2.72,2.72,0,0,0-1.67-.9,1.13,1.13,0,0,0-1.15.83,5.25,5.25,0,0,0,1.5,4.92,3.76,3.76,0,0,0,1.22.51,1,1,0,0,0,1.14-.75,1.24,1.24,0,0,0,.09-.33c0-.26,0-.53.06-.71A5.51,5.51,0,0,0,821.19,357Zm-2.75-19.56a2.13,2.13,0,0,0-1.64-.68,1.26,1.26,0,0,0-1.15,1.07,4.93,4.93,0,0,0,1,4.37,2,2,0,0,0,1.61.63,1.18,1.18,0,0,0,1.06-.91,6.22,6.22,0,0,0,.21-1.05A5.35,5.35,0,0,0,818.44,337.43Zm1.18,9.37a2.3,2.3,0,0,0-1.62-.74,1.11,1.11,0,0,0-1.12.93,4.83,4.83,0,0,0,1.26,4.67,1.7,1.7,0,0,0,1.78.48,1.51,1.51,0,0,0,.86-1.55v-.45A5,5,0,0,0,819.62,346.8Z"/><path class="cls-98" d="M814.71,326.19H815l22.14-.2a1.61,1.61,0,0,1,.74.2l19.3,10.3,2.41,1.28-.31.05-11.9.48c-4.71.18-9.42.38-14.14.55a1.6,1.6,0,0,1-.9-.26q-7.08-4.9-14.14-9.83l-3.53-2.46Zm24.62,7a.81.81,0,0,0,.4-1.43,3.37,3.37,0,0,0-.85-.75,8.23,8.23,0,0,0-5-1.33,2.91,2.91,0,0,0-1,.27.7.7,0,0,0-.32,1.14,4.57,4.57,0,0,0,1.11,1,9.15,9.15,0,0,0,4.34,1.32A10.06,10.06,0,0,0,839.33,333.17Z"/><path class="cls-98" d="M809,339.08c-1.85-2.16-3.69-4.33-5.55-6.49-.2-.24-.11-.4,0-.61l13-25.51c.06-.14.15-.27.24-.44l.4.53c3.31,4.52,6.59,9.07,10,13.54a2,2,0,0,1,.23,2.69.74.74,0,0,1-.71.43c-4.52,0-9,.09-13.56.11-.48,0-.65.16-.74.61-.65,3.13-1.34,6.26-2,9.4-.39,1.93-.73,3.87-1.1,5.84C809,339.12,809,339.11,809,339.08Zm6-19.57a.93.93,0,0,0,1.36.56,1.67,1.67,0,0,0,.46-.28,5.31,5.31,0,0,0,1.83-4.59c-.11-1.19-1-1.54-1.93-.77a5.69,5.69,0,0,0-1.9,4.13A6.05,6.05,0,0,0,815,319.51Z"/><path class="cls-98" d="M777.12,328.17a1.88,1.88,0,0,1,.33.05q11.76,2.55,23.5,5.13a1.36,1.36,0,0,1,.65.39q3.4,3.94,6.78,7.92a.83.83,0,0,1,.15.61c-.19,1.19-.43,2.37-.65,3.56-.09.48-.18,1-.28,1.45-.18,0-.29,0-.4-.07q-6.41-1.59-12.79-3.21a1.62,1.62,0,0,1-.68-.37l-16.34-15.08a4,4,0,0,0-.35-.26ZM801,338a.72.72,0,0,0-.12-.66,9.57,9.57,0,0,0-1.68-1.51,16,16,0,0,0-2.43-1.07,1.45,1.45,0,0,0-.59-.06c-.5,0-.67.33-.46.78a1.76,1.76,0,0,0,.33.49,7.75,7.75,0,0,0,3.93,2.27,3.78,3.78,0,0,0,.54.05C800.6,338.28,800.9,338.21,801,338Zm-10.16-2.58a1.71,1.71,0,0,0-.32-.44,8.18,8.18,0,0,0-3.45-2.14c-.33-.1-.8-.3-1,.1-.09.2.16.65.37.88a7.8,7.8,0,0,0,3.45,2.15,2.93,2.93,0,0,0,.45.1C790.91,336.12,791.06,335.88,790.82,335.46Zm15.67,9a.59.59,0,0,0-.13-.53,6.52,6.52,0,0,0-4.14-2.2.42.42,0,0,0-.38.73,7.05,7.05,0,0,0,4.2,2.26C806.18,344.59,806.43,344.54,806.49,344.41Zm-9.6-2.47a.53.53,0,0,0-.1-.44,7.21,7.21,0,0,0-1.31-1.11,21.93,21.93,0,0,0-2.44-1.06.61.61,0,0,0-.48.15s0,.29.08.39a7.12,7.12,0,0,0,3.85,2.27C796.65,342.07,796.86,342,796.89,341.94Z"/><rect class="cls-10" x="1567.58" y="280.43" width="167.34" height="127.17" rx="9.57" ry="9.57" transform="translate(3302.51 688.04) rotate(180)"/><rect class="cls-24" x="1571.74" y="304.26" width="159.04" height="99.14" rx="8.24" ry="8.24" transform="translate(3302.51 707.67) rotate(180)"/><circle class="cls-24" cx="1724.24" cy="291.88" r="2.76"/><circle class="cls-24" cx="1712.24" cy="291.88" r="2.76"/><polygon class="cls-10" points="1607.38 407.61 1582.13 407.75 1571.74 427.41 1607.38 407.61"/><path class="cls-10" d="M1662.63,343.19V323.37c0-1.46-.42-1.89-1.87-1.89h-30.07c-1.37,0-1.81.44-1.81,1.8v9.91a3.56,3.56,0,0,1-.07.8,1.29,1.29,0,0,1-1.32,1,1.27,1.27,0,0,1-1.23-1,3,3,0,0,1-.06-.73c0-3.37,0-6.74,0-10.12a4,4,0,0,1,4.36-4.33h30.34a4.49,4.49,0,0,1,3.55,1.53c1.24,1.35,2.57,2.61,3.84,3.93a6.49,6.49,0,0,1,1.71,4.65v24.58c0,3.91,0,7.82,0,11.72a6.62,6.62,0,0,1-6.81,6.89c-9,0-18.08,0-27.12,0a6.84,6.84,0,0,1-4.89-2c-1.31-1.28-2.63-2.55-3.91-3.85a3.81,3.81,0,0,1-1.07-2.68q0-9.1,0-18.21A1.24,1.24,0,0,1,1627,344a1.58,1.58,0,0,1,1.29.15,1.91,1.91,0,0,1,.57,1.32c.05,3.5,0,7,0,10.51v7.17c0,1.22.48,1.7,1.71,1.7h30.34c1.22,0,1.7-.49,1.7-1.72V343.19Zm-30.12,24.36a4.44,4.44,0,0,0,3.67,1.87h26.71c2.85,0,4.42-1.59,4.42-4.45q0-8.43,0-16.87,0-9.6,0-19.21a4.54,4.54,0,0,0-2-3.77V326q0,18.61,0,37.22a4,4,0,0,1-4.29,4.34h-28.51Z"/><path class="cls-10" d="M1686.53,346.76l-2.63,4.53c-5.47,9.49-11,19-16.41,28.47a4.24,4.24,0,0,1-4.81,2.11,5.6,5.6,0,0,1-1.09-.49l-8.06-4.65a3.3,3.3,0,0,1-.39-.26,1.36,1.36,0,0,1-.38-1.79,1.31,1.31,0,0,1,1.71-.48c.62.29,1.21.66,1.81,1l6.43,3.72c1.21.7,1.82.54,2.52-.67l19.85-34.36c.72-1.25.56-1.84-.7-2.57q-5.76-3.33-11.53-6.66a3.9,3.9,0,0,1-.71-.49,1.29,1.29,0,0,1-.2-1.6,1.3,1.3,0,0,1,1.5-.58,3.74,3.74,0,0,1,.73.34c3.86,2.23,7.72,4.47,11.59,6.68a4.61,4.61,0,0,1,2.41,3.2c.32,1.5.74,3,1.18,4.46a7.2,7.2,0,0,1-.78,5.91q-7.07,12.18-14.09,24.39c-1.3,2.26-2.6,4.53-3.91,6.79a6.63,6.63,0,0,1-9.54,2.53l-13-7.57a2.87,2.87,0,0,1-.69-.51,1.23,1.23,0,0,1-.17-1.54,1.21,1.21,0,0,1,1.48-.59,10.33,10.33,0,0,1,1.48.76l12.2,7.13a3.93,3.93,0,0,0,5-.45,5.19,5.19,0,0,0,.82-1.13q9.06-15.66,18.12-31.34A4.65,4.65,0,0,0,1686.53,346.76Z"/><path class="cls-10" d="M1644.39,349.21h-5.52c-1.12,0-1.48-.26-1.8-1.3q-1-3.37-2-6.73c-.35-1.19,0-1.88,1.22-2.13,2.49-.51,5-.91,7.49-1.35l.6-.08c0-1.36,0-2.69,0-4,0-.36,0-.72,0-1.07a1.29,1.29,0,0,1,1.27-1.3,1.25,1.25,0,0,1,1.35,1.19c.07.62,0,1.25,0,1.87v3.15a5.15,5.15,0,0,0,.6.05c2.3.07,4.59.12,6.89.2,1.19,0,1.7.63,1.54,1.81q-.6,4.22-1.24,8.41a1.37,1.37,0,0,1-1.56,1.3h-6.23V350c0,2,0,4.06,0,6.09,0,1.21-.77,1.88-1.74,1.58-.63-.2-.93-.69-.94-1.53q0-3,0-6.09Zm8.89-9h-6.16v6.27h5.24Zm-9,6.3v-6.25l-6.4,1c.52,1.75,1,3.37,1.49,5a.49.49,0,0,0,.39.25C1641.29,346.53,1642.78,346.52,1644.32,346.52Z"/><path class="cls-10" d="M1628.87,339.67a1.39,1.39,0,0,1-1.31,1.35,1.33,1.33,0,1,1,0-2.66A1.37,1.37,0,0,1,1628.87,339.67Z"/><rect class="cls-98" x="539.19" y="559.27" width="167.34" height="127.17" rx="9.57" ry="9.57" transform="translate(1245.73 1245.7) rotate(180)"/><rect class="cls-24" x="543.35" y="583.09" width="159.04" height="99.14" rx="8.24" ry="8.24" transform="translate(1245.73 1265.33) rotate(180)"/><circle class="cls-24" cx="695.85" cy="570.71" r="2.76"/><circle class="cls-24" cx="683.85" cy="570.71" r="2.76"/><polygon class="cls-98" points="578.99 686.44 553.74 686.58 543.35 706.24 578.99 686.44"/><path class="cls-98" d="M595.3,652.23c0-1.45-.09-2.94,0-4.42.29-3.86,1.66-7.23,5.11-9.29a44.72,44.72,0,0,1,5.67-2.46c1-.39,1.94-.7,2.9-1.08,3.27-1.28,2.85-5.2,1-6.88a4.25,4.25,0,0,0-4.13-1,1.07,1.07,0,0,0-.64.67,5,5,0,0,1-5.42,4.33H595c-1.53,0-2.11-.58-2.11-2.1,0-2.9,0-5.81,0-8.72a2.76,2.76,0,0,1,.37-1.35,30.79,30.79,0,0,1,9.19-9.41,37.26,37.26,0,0,1,4-2.1c.46-.22.62-.39.46-.9a19.21,19.21,0,0,1-.68-2.47c-.28-1.45.83-2.43,2.17-1.84,3.89,1.7,7.76,3.42,11.59,5.24a14.51,14.51,0,0,1,6.83,7.24,23.21,23.21,0,0,1,2.3,9.49c.13,6,.12,11.93.16,17.89,0,1.11-.58,1.78-1.51,1.8s-1.56-.61-1.59-1.73c0-1.74,0-3.48,0-5.23,0-4,.05-8.09-.11-12.13a20.5,20.5,0,0,0-3.24-10.8,11.4,11.4,0,0,0-5.27-4.27c-2.38-1-4.7-2.09-7-3.15l-.37-.13c.08.35.13.64.2.92.33,1.24,0,2-1.19,2.36a22.56,22.56,0,0,0-8.25,4.94,23.08,23.08,0,0,0-4.63,5.47,7.61,7.61,0,0,0-.39,2.74c1.91.51,2.39.91,2.29,1.83s-.79,1.4-2.15,1.45c0,.28,0,.57,0,.86s0,.55,0,.94h2.13c.74,0,1.47,0,2.2,0a1.73,1.73,0,0,0,1.85-1.71c.27-2.18.65-2.57,2.76-3.15a7.61,7.61,0,0,1,9.61,7.13c.1,3.07-1,5.09-4,6.46-2.08,1-4.29,1.62-6.44,2.41a8.13,8.13,0,0,0-5.6,7.14c-.19,1.65-.17,3.32-.25,5,.33,0,.54.06.76.06h13.27a8.4,8.4,0,0,1,1.66.14,1.31,1.31,0,0,1,1.11,1.41A1.33,1.33,0,0,1,614,655.3a5.57,5.57,0,0,1-1.42.15H595.36a2.14,2.14,0,0,0-2.11,3h18.31c1,0,1.68.44,1.81,1.23a1.44,1.44,0,0,1-1.4,1.83c-1.79.06-3.58,0-5.38,0-4.72,0-9.45,0-14.18,0-.54,0-.63.35-.72.7a2.13,2.13,0,0,0,2.17,2.74c2.08,0,4.15,0,6.22,0H613.2c1,0,1.67.44,1.83,1.24.22,1.09-.52,1.87-1.78,1.88h-4c-5,0-10,0-15,0a5.43,5.43,0,0,1-5.24-2.92,5.31,5.31,0,0,1,.71-5.81,1,1,0,0,0,.27-.69c-.44-3.44,1.36-5.84,4.81-6.34A3.27,3.27,0,0,0,595.3,652.23Z"/><path class="cls-98" d="M647.2,652.73c5.23-15.87,10.43-31.63,15.67-47.49l-30.68-10.13c-.58,1.74-1.13,3.44-1.69,5.13q-1.29,3.94-2.59,7.89a1.57,1.57,0,0,1-1.4,1.21,1.29,1.29,0,0,1-1.46-.82,3.1,3.1,0,0,1,0-1.76c1.09-3.43,2.26-6.84,3.39-10.26.3-.89.58-1.77.87-2.66a2.49,2.49,0,0,1,3.53-1.78l10.63,3.52,20.72,6.82c1.67.55,2.26,1.78,1.69,3.52q-2.31,7.11-4.67,14.21l-6.75,20.46q-2.22,6.7-4.43,13.43a2.45,2.45,0,0,1-3.46,1.77c-1.23-.39-2.45-.79-3.65-1.22a1.51,1.51,0,0,1-1.06-2,1.58,1.58,0,0,1,2-1C645,652,646.05,652.35,647.2,652.73Z"/><path class="cls-98" d="M628.72,668.09c-2.33,0-4.65.06-7,0a3.14,3.14,0,0,1-3.34-3.34q-.07-7.07,0-14.11a3.29,3.29,0,0,1,3.55-3.35h13.35c2,0,3.3.83,3.75,2.42a4.73,4.73,0,0,1,.15,1.19c0,4.6,0,9.2,0,13.8a3.21,3.21,0,0,1-3.43,3.41c-2.35,0-4.7,0-7,0Zm7.34-3.11V650.5H621.58V665Z"/><path class="cls-98" d="M642.09,616.7a5.45,5.45,0,0,1,6.91,2,5.89,5.89,0,0,1-.55,6.59,17.09,17.09,0,0,1-5.3,4.45c-1.48.85-3,1.62-4.52,2.44s-2.23.56-3-.92a41.45,41.45,0,0,1-3.42-8.3,9.24,9.24,0,0,1,.09-5.72,5,5,0,0,1,4.23-3.35,5.18,5.18,0,0,1,5.14,2.23l.2.31ZM638,629c1-.52,1.89-1,2.77-1.47a26.22,26.22,0,0,0,2.57-1.6,8.57,8.57,0,0,0,3.12-3.42,2.26,2.26,0,0,0-.64-2.79,2.2,2.2,0,0,0-2.84.19c-.29.24-.57.51-.87.73a1.49,1.49,0,0,1-2.38-.74c-.14-.43-.2-.88-.31-1.32a2,2,0,0,0-2.15-1.66,2.07,2.07,0,0,0-2.07,1.65,7.53,7.53,0,0,0-.17,2.17C635.28,623.73,636.78,626.28,638,629Z"/><path class="cls-98" d="M642.63,646.16a15,15,0,0,1,.67-1.77,1.49,1.49,0,0,1,1.8-.7,1.56,1.56,0,0,1,1,1.75,10.11,10.11,0,0,1-.61,1.78,1.47,1.47,0,0,1-1.84.79C643,647.83,642.62,647.26,642.63,646.16Z"/><path class="cls-98" d="M636.75,601.69a16.6,16.6,0,0,1-.6,1.72,1.49,1.49,0,0,1-1.88.71,1.46,1.46,0,0,1-.91-1.82,9.28,9.28,0,0,1,.57-1.71,1.53,1.53,0,0,1,1.8-.78C636.38,600,636.79,600.64,636.75,601.69Z"/><path class="cls-98" d="M611,616.26a1.54,1.54,0,0,1,1.76,1.53,1.51,1.51,0,0,1-1.64,1.57,1.6,1.6,0,0,1-1.73-1.51A1.5,1.5,0,0,1,611,616.26Z"/><path class="cls-98" d="M633.23,660.5a1.72,1.72,0,1,1-1.71-1.55A1.66,1.66,0,0,1,633.23,660.5Z"/><path class="cls-98" d="M633.23,654.89a1.67,1.67,0,0,1-1.75,1.6,1.58,1.58,0,0,1-1.66-1.5,1.71,1.71,0,0,1,3.41-.1Z"/><path class="cls-98" d="M624.43,654.91a1.61,1.61,0,0,1,1.69-1.55,1.53,1.53,0,0,1,1.66,1.54,1.62,1.62,0,0,1-1.72,1.61A1.57,1.57,0,0,1,624.43,654.91Z"/><path class="cls-98" d="M626.14,662a1.49,1.49,0,0,1-1.71-1.48,1.68,1.68,0,0,1,3.35-.06A1.48,1.48,0,0,1,626.14,662Z"/><rect class="cls-98" x="842.48" y="737.71" width="167.34" height="127.17" rx="9.57" ry="9.57" transform="translate(1852.31 1602.6) rotate(180)"/><rect class="cls-24" x="846.63" y="761.54" width="159.04" height="99.14" rx="8.24" ry="8.24" transform="translate(1852.31 1622.22) rotate(180)"/><circle class="cls-24" cx="999.14" cy="749.16" r="2.76"/><circle class="cls-24" cx="987.13" cy="749.16" r="2.76"/><polygon class="cls-98" points="882.27 864.88 857.03 865.03 846.63 884.69 882.27 864.88"/><path class="cls-98" d="M926.72,780.2c-2.65,2.21-3,5.35-3.63,8.42-1.26,6.63-2.57,13.26-3.87,19.88a1.59,1.59,0,0,1-.1.36c-1.36-.76-2.76-1.46-4.07-2.3s-2.84-2-4.32-3.06c-.53,2.65-2.45,4.66-4,6.92s-.64,4.68,1.64,5.37a3.7,3.7,0,0,0,3.28-.52c.26-.17.5-.37.85-.62.29,1.67-.48,3-1.39,4.43.64-.09.92-.1,1.19-.16l5.16-1.22c-1.41-1-2.76-1.79-3.16-3.2l3.76-.37c-.39,2-.8,4.19-1.23,6.37-.72,3.66-1.47,7.31-2.15,11a9.47,9.47,0,0,0,4.49,10c.18.12.37.23.69.41a4.86,4.86,0,0,1-.67.26c-4.06,1-8.12,1.92-12.19,2.83a7.77,7.77,0,0,1-9.64-6q-4.68-20.15-9.3-40.3c-.53-2.26-1.09-4.52-1.55-6.8a7.69,7.69,0,0,1,5.87-9.22c7.68-1.83,15.38-3.57,23.08-5.34,1-.23,2-.47,3-.68A7.8,7.8,0,0,1,926.72,780.2Zm-34.09,14.39,2.8-.66-1.57-1.72c.5,0,.72.06.94,0a1.74,1.74,0,0,0,1.76-1.21,1.61,1.61,0,0,0-.78-2c-1.15-.75-2.35-1.43-3.41-2.06-.67,1-1.37,2.06-2,3.12a1.76,1.76,0,0,0,0,2.29,1.72,1.72,0,0,0,2.1.39c.22-.08.43-.2.86-.41Z"/><path class="cls-98" d="M948.62,845.79c-1.79-.34-4.23-.79-6.67-1.27l-19.12-3.74a7.61,7.61,0,0,1-6.19-9.21q4.46-22.77,8.92-45.55a7.6,7.6,0,0,1,9.11-6.21q12.52,2.41,25,4.9a7.52,7.52,0,0,1,6.07,8.94c-1.79,9.39-3.65,18.76-5.48,28.13q-1.68,8.67-3.37,17.35A7.84,7.84,0,0,1,948.62,845.79Zm-29.58-13a5.16,5.16,0,0,0,4.13,5.5q12.27,2.41,24.55,4.79c3.72.71,6-.91,6.74-4.61,1-5.07,2-10.12,2.95-15.18,1.93-9.91,3.89-19.81,5.81-29.71a5.06,5.06,0,0,0-4.27-6.38q-12.37-2.45-24.74-4.86a5.07,5.07,0,0,0-6.15,4.16c-.12.63-.26,1.25-.38,1.87q-3.7,18.93-7.4,37.86C919.82,828.54,919.39,830.89,919,832.76Z"/><path class="cls-98" d="M942.7,805.38c1,2.68,2,5.28,3,7.9a.75.75,0,0,1-.14.66c-1.89,2.06-3.81,4.1-5.83,6.25a61.09,61.09,0,0,0-2.31-5.86,3.2,3.2,0,0,1,.89-4.49,53.49,53.49,0,0,0,4.08-4.29A2.65,2.65,0,0,1,942.7,805.38Z"/><path class="cls-98" d="M949.28,839.28c-.53-1.37-1-2.55-1.43-3.73a.88.88,0,0,1,.11-.76c.85-1,1.76-1.91,2.77-3,.53,1.4,1,2.65,1.46,3.91a.7.7,0,0,1-.15.58C951.17,837.26,950.28,838.2,949.28,839.28Z"/><path class="cls-98" d="M931.66,792.79c-.53-1.38-1-2.52-1.41-3.69a1,1,0,0,1,.14-.84c.84-1,1.73-1.86,2.72-2.91.53,1.37,1,2.62,1.48,3.88a.62.62,0,0,1-.1.51C933.6,790.72,932.69,791.68,931.66,792.79Z"/><rect class="cls-10" x="81.67" y="316.41" width="167.34" height="127.17" rx="9.57" ry="9.57"/><rect class="cls-24" x="85.83" y="340.24" width="159.04" height="99.14" rx="8.24" ry="8.24"/><circle class="cls-24" cx="92.36" cy="327.86" r="2.76"/><circle class="cls-24" cx="104.36" cy="327.86" r="2.76"/><polygon class="cls-10" points="209.22 443.59 234.47 443.73 244.87 463.39 209.22 443.59"/><path class="cls-10" d="M165.91,358.7c-2.65,2.22-3,5.35-3.63,8.43-1.26,6.63-2.57,13.25-3.86,19.88a2.85,2.85,0,0,1-.11.36c-1.36-.76-2.76-1.46-4.07-2.3-1.46-.94-2.84-2-4.32-3.07-.52,2.66-2.45,4.66-3.95,6.93s-.65,4.67,1.63,5.37a3.69,3.69,0,0,0,3.28-.52l.85-.62c.29,1.67-.48,3-1.39,4.43.64-.09.92-.11,1.19-.17l5.16-1.21c-1.41-1-2.76-1.8-3.15-3.21l3.75-.36c-.39,2-.8,4.19-1.23,6.37-.71,3.65-1.46,7.3-2.15,11a9.48,9.48,0,0,0,4.49,10l.69.41c-.3.12-.48.21-.66.26-4.07.95-8.12,1.91-12.19,2.83a7.78,7.78,0,0,1-9.65-6q-4.68-20.15-9.3-40.3c-.52-2.26-1.09-4.52-1.54-6.8a7.69,7.69,0,0,1,5.86-9.23c7.68-1.83,15.39-3.56,23.08-5.34l3-.68A7.82,7.82,0,0,1,165.91,358.7Zm-34.09,14.39,2.8-.65-1.57-1.72c.51,0,.72,0,.94,0a1.75,1.75,0,0,0,1.76-1.21,1.6,1.6,0,0,0-.78-2c-1.15-.75-2.35-1.43-3.41-2.07-.66,1-1.37,2.06-2,3.13a1.76,1.76,0,0,0,0,2.29,1.73,1.73,0,0,0,2.1.39c.22-.09.43-.2.87-.41Z"/><path class="cls-10" d="M187.81,424.3,181.15,423c-6.38-1.25-12.75-2.51-19.13-3.74a7.61,7.61,0,0,1-6.19-9.21q4.46-22.79,8.92-45.56a7.61,7.61,0,0,1,9.12-6.21q12.51,2.43,25,4.91a7.53,7.53,0,0,1,6.08,8.94c-1.8,9.38-3.66,18.75-5.48,28.13q-1.69,8.67-3.37,17.34A7.85,7.85,0,0,1,187.81,424.3Zm-29.58-13a5.17,5.17,0,0,0,4.13,5.51q12.27,2.42,24.55,4.78c3.72.72,6-.91,6.74-4.6q1.46-7.6,2.95-15.19,2.91-14.85,5.82-29.7a5.06,5.06,0,0,0-4.28-6.38q-12.36-2.46-24.74-4.86a5.08,5.08,0,0,0-6.15,4.16c-.12.62-.25,1.25-.38,1.87q-3.69,18.93-7.4,37.86C159,407.05,158.58,409.4,158.23,411.26Z"/><path class="cls-10" d="M181.89,383.89c1,2.67,2,5.28,3,7.9a.78.78,0,0,1-.13.66c-1.9,2.06-3.82,4.1-5.83,6.25-.79-2-1.39-4-2.31-5.86s-.71-3.14.88-4.49a55.35,55.35,0,0,0,4.09-4.29A2.11,2.11,0,0,1,181.89,383.89Z"/><path class="cls-10" d="M188.47,417.78c-.53-1.37-1-2.54-1.43-3.73a.92.92,0,0,1,.11-.76c.86-1,1.76-1.9,2.77-3,.53,1.39,1,2.64,1.47,3.91a.74.74,0,0,1-.16.58C190.37,415.76,189.48,416.7,188.47,417.78Z"/><path class="cls-10" d="M170.86,371.29c-.54-1.37-1-2.51-1.41-3.68a1,1,0,0,1,.14-.84c.83-.95,1.72-1.86,2.72-2.92.52,1.38,1,2.63,1.47,3.88a.64.64,0,0,1-.1.52C172.8,369.23,171.89,370.19,170.86,371.29Z"/><rect class="cls-98" x="1039.91" y="193.74" width="167.34" height="127.17" rx="9.57" ry="9.57"/><rect class="cls-24" x="1044.06" y="217.57" width="159.04" height="99.14" rx="8.24" ry="8.24"/><circle class="cls-24" cx="1050.59" cy="205.19" r="2.76"/><circle class="cls-24" cx="1062.6" cy="205.19" r="2.76"/><polygon class="cls-98" points="1167.46 320.91 1192.7 321.06 1203.1 340.71 1167.46 320.91"/><path class="cls-98" d="M1086.16,282.64a1.88,1.88,0,0,0,.12-.18,1.6,1.6,0,0,1,1.55-.95c6.07,0,12.14,0,18.21-.06h.4V252.82c-.56,0-1.11,0-1.67,0l-15-.07c-.83,0-1.67-.11-2.51-.07s-1.22-.81-1-1.59a1,1,0,0,1,.9-.85c1.22-.07,2.43-.17,3.65-.17q7.58,0,15.15,0h.49c0-.15,0-.27,0-.39,0-6.1.07-12.19,0-18.28a1.58,1.58,0,0,1,.92-1.49l.25-.15h.46a2.15,2.15,0,0,1,.37.19,1.49,1.49,0,0,1,.75,1.33c0,6.08,0,12.16,0,18.24V250H1138v-.46l.06-17c0-.52,0-1,.07-1.57a1.25,1.25,0,0,1,1.72-1.1,1.32,1.32,0,0,1,.94,1.33v18.85h.52l17.36.07a12.83,12.83,0,0,1,1.63.15.63.63,0,0,1,.58.56s0,.1,0,.15c.23,1.14-.17,1.68-1.31,1.72-1.66,0-3.33.07-5,.08q-6.72,0-13.43.05l-.36,0v28.62c.77,0,1.54,0,2.31,0l16.37.06a1.4,1.4,0,0,1,1.37,2,.82.82,0,0,1-.7.57c-.56,0-1.12.11-1.67.11-4.58,0-9.16,0-13.74,0h-4v.48q0,7.25,0,14.5c0,1.31,0,2.62-.07,3.93a1.3,1.3,0,0,1-1.94,1.21.85.85,0,0,1-.56-.71,15.93,15.93,0,0,1-.15-1.67c0-5.74,0-11.48-.06-17.21v-.48H1109.3c0,.2,0,.36,0,.52,0,6.12-.1,12.24-.11,18.36a1.29,1.29,0,0,1-.88,1.29l-.17.08h-.46l-.25-.14a1.51,1.51,0,0,1-.91-1.45c0-6.1,0-12.2-.06-18.3,0-.13,0-.25,0-.41H1106c-6.1,0-12.2,0-18.31,0a1.52,1.52,0,0,1-1.36-.82l-.14-.27Zm23.08-29.79v.43q0,13.87,0,27.74c0,.35.08.45.44.45q13.95,0,27.9,0h.41V252.85Z"/><path class="cls-98" d="M1157.26,240.5a6.78,6.78,0,1,1-13.55-.06,6.78,6.78,0,0,1,13.55.06Zm-6.81,3.93a4,4,0,0,0,4.07-4,4.11,4.11,0,0,0-4-4,4,4,0,0,0-4,3.95A3.86,3.86,0,0,0,1150.45,244.43Z"/><path class="cls-98" d="M1158,294.55a6.77,6.77,0,1,1-13.53,0,6.77,6.77,0,0,1,13.53,0Zm-6.82,3.93a3.93,3.93,0,0,0,4.06-3.86,4,4,0,0,0-8-.2A3.88,3.88,0,0,0,1151.16,298.48Z"/><path class="cls-98" d="M1130.4,294.55a6.78,6.78,0,0,1-13.55,0,6.78,6.78,0,0,1,13.55,0Zm-10.76-.05a3.94,3.94,0,0,0,4.1,4,4,4,0,0,0,3.89-4,4,4,0,0,0-8,0Z"/><path class="cls-98" d="M1149.29,267.11c-1.21-1.17-2.35-2.26-3.47-3.36a10.64,10.64,0,0,1-.84-.94,1.47,1.47,0,0,1,.07-1.74,1.06,1.06,0,0,1,1.55-.22,18.25,18.25,0,0,1,1.75,1.53c.93.91,1.84,1.86,2.86,2.91.91-1,1.76-1.9,2.65-2.79a17.48,17.48,0,0,1,1.77-1.56,1.25,1.25,0,0,1,2.06.84,1.41,1.41,0,0,1-.27.9,13.24,13.24,0,0,1-1.27,1.43c-1,1-2,2-3,3,.17.19.28.31.4.42l3.7,3.8a1.39,1.39,0,0,1,.48,1.4,1.27,1.27,0,0,1-1.84.78,10.63,10.63,0,0,1-1.38-1.13c-1-1-2-2-3-3l-.32-.3-3.36,3.41a11.79,11.79,0,0,1-.9.83,1.33,1.33,0,0,1-1.71,0,1.44,1.44,0,0,1-.18-1.82c.66-.76,1.36-1.48,2.06-2.2S1148.46,267.91,1149.29,267.11Z"/><path class="cls-98" d="M1121.74,240.31l-3.79-3.86a7.45,7.45,0,0,1-.57-.67,1.28,1.28,0,0,1,.15-1.66,1.06,1.06,0,0,1,1.54-.11,20.1,20.1,0,0,1,1.55,1.36c.88.83,1.74,1.68,2.61,2.52l.4.35c.28-.24.55-.47.8-.71,1-.92,1.89-1.85,2.85-2.77a7.86,7.86,0,0,1,1-.81,1.12,1.12,0,0,1,1.51.24,1.21,1.21,0,0,1,.16,1.48,11.45,11.45,0,0,1-1,1.12c-1,1.06-2.07,2.1-3.11,3.15a4.5,4.5,0,0,1-.37.27c.16.17.25.27.35.36,1.27,1.31,2.54,2.6,3.8,3.92a1.79,1.79,0,0,1,.45.73,1.22,1.22,0,0,1-.52,1.3,1,1,0,0,1-1.4,0c-.55-.43-1.06-.9-1.57-1.38l-2.61-2.52a4.75,4.75,0,0,0-.38-.33c-.28.26-.56.5-.82.75l-3.27,3.15a4.19,4.19,0,0,1-.33.26,1.18,1.18,0,0,1-1.73-.11,1.23,1.23,0,0,1,0-1.69c.73-.81,1.49-1.6,2.26-2.38S1121.05,241,1121.74,240.31Z"/><path class="cls-98" d="M1098,267.24c1.1,1.06,2.19,2.1,3.26,3.15a9.86,9.86,0,0,1,1,1.07,1.37,1.37,0,0,1,.07,1.58,1.11,1.11,0,0,1-1.26.58,1.58,1.58,0,0,1-.76-.39c-1-1-2.08-2-3.11-3-.35-.34-.67-.69-1-1.07l-.39.36-4.15,3.83a1.11,1.11,0,0,1-1.5.1,1.16,1.16,0,0,1-.39-1.71,10,10,0,0,1,1-1.15c1-1.05,2-2.08,3.08-3.12l.34-.35c-.39-.35-.78-.68-1.13-1q-1.53-1.55-3-3.12a1.83,1.83,0,0,1-.43-.67,1.16,1.16,0,0,1,.36-1.24,1.12,1.12,0,0,1,1.39-.27,7.56,7.56,0,0,1,1.24.95c1.06,1,2.09,2,3.13,3.06a5.6,5.6,0,0,1,.4.47c.22-.24.38-.44.56-.61q1.81-1.8,3.65-3.57a1.24,1.24,0,0,1,1-.4,1.16,1.16,0,0,1,1.07.61,1.35,1.35,0,0,1,0,1.42,8.65,8.65,0,0,1-.88,1c-1,1-2,2.08-3.08,3.13Z"/><path class="cls-98" d="M1096.72,242.24,1093,245.8c-.25.24-.53.47-.8.7a1.29,1.29,0,0,1-1.68-.09,1.13,1.13,0,0,1-.18-1.64c.59-.71,1.24-1.39,1.89-2.05s1.62-1.58,2.46-2.4l-.33-.35q-1.92-2-3.83-3.94a1.21,1.21,0,0,1-.31-1.49,1.25,1.25,0,0,1,1.92-.5c.86.71,1.67,1.48,2.48,2.25s1.33,1.33,2.06,2.06c.72-.74,1.39-1.46,2.09-2.16s1.43-1.38,2.16-2.06a1.15,1.15,0,0,1,1.75,0,1.23,1.23,0,0,1,.08,1.83c-1.2,1.28-2.43,2.54-3.65,3.8a6.43,6.43,0,0,1-.54.45l.35.37,3.84,4a1.14,1.14,0,0,1,.28,1.29,1.41,1.41,0,0,1-1.08.92,1.09,1.09,0,0,1-1-.37l-3.67-3.56C1097.1,242.66,1096.92,242.45,1096.72,242.24Z"/><path class="cls-98" d="M1123.69,260.44a6.76,6.76,0,0,1,5.3,10.81,6.78,6.78,0,0,1-12.13-3.94,6.87,6.87,0,0,1,5-6.69A13.68,13.68,0,0,1,1123.69,260.44Zm3.88,6.71a3.85,3.85,0,0,0-3.88-4,4,4,0,1,0-.13,7.93A3.84,3.84,0,0,0,1127.57,267.15Z"/><rect class="cls-10" x="903.46" y="510.3" width="167.34" height="127.17" rx="9.57" ry="9.57"/><rect class="cls-24" x="907.61" y="534.13" width="159.04" height="99.14" rx="8.24" ry="8.24"/><circle class="cls-24" cx="914.15" cy="521.75" r="2.76"/><circle class="cls-24" cx="926.15" cy="521.75" r="2.76"/><polygon class="cls-10" points="1031.01 637.48 1056.26 637.62 1066.65 657.28 1031.01 637.48"/><path class="cls-10" d="M1013.41,585l2.49,1.5c-1.81,4-10.68,9.27-15.7,9.2l-.14-2.9h-6.47v3.07a24.76,24.76,0,0,1-16-9.21l2.65-1.68L977,579.35l-2.72,1.49a24,24,0,0,1,0-18.47l2.87,1.5,3.25-5.63-2.66-1.67a24.42,24.42,0,0,1,15.89-9.22l.15,3.19h6.41v-3.06a24.62,24.62,0,0,1,16.06,9.11l-2.68,1.62,3.24,5.63,2.75-1.47a25.23,25.23,0,0,1-.14,18.49l-1.37-.74-1.36-.79Zm-19.85,2.15a15.23,15.23,0,0,0,9.83-1.15l-.95-2.11-8.39.87Zm11.37-26.59,4.89,6.77,2.27-.74a15.47,15.47,0,0,0-5.83-8Zm-19.93.37a16.15,16.15,0,0,0-4,9l2.36.24,3.39-7.65Zm25.43,12-3.4,7.64,1.79,1.57a16.26,16.26,0,0,0,4-9Zm-22.88,11.47,1.35-1.91L984,575.77l-2.27.69A16.36,16.36,0,0,0,987.55,584.43Zm3.83-25.21,8.39-1,.47-2.25a16,16,0,0,0-9.81,1.12Zm-7-6.44,1.7,2.83,2.41-1.45L987,551.5Zm4.26,36-2.41-1.42-1.71,2.84,2.43,1.41Zm30.44-15.89v-2.69h-3.07v2.69Zm-44.65,0h3.11v-2.64h-3.11Zm30.79,15.94,1.56,2.83,2.41-1.43-1.58-2.82Zm4-35.84-2.42-1.41-1.56,2.83,2.41,1.42Z"/><path class="cls-10" d="M987.19,600l2.09,1.82a31,31,0,0,1,1.85-2.66,1.8,1.8,0,0,1,1.28-.65c1.52.07,3,.29,4.79.48L994,604.56l2.67,1.62a24.6,24.6,0,0,1-15.9,9.26v-3.05H974.2l-.15,3a24.67,24.67,0,0,1-15.88-9.21l2.67-1.65-3.25-5.65-2.71,1.51a23.85,23.85,0,0,1,0-18.36l2.7,1.54,3.26-5.66-2.66-1.64a25,25,0,0,1,11.62-8.17c-.74,14.47,5.71,24.16,18.94,29.63ZM974,606.72a14.52,14.52,0,0,0,9.69-1.2l-.95-2.07-8.23.86Zm-8.55-26.25a16.17,16.17,0,0,0-4,9l2.35.19,3.41-7.62Zm-3.28,15.58a16.52,16.52,0,0,0,5.87,8l1.31-1.93-4.91-6.78Zm-7.08-3.56h3.13v-2.68h-3.13Zm11.51-17.18,2.4-1.42-1.59-2.83L965,572.49Zm.83,35.82,1.57-2.82-2.41-1.43L965,609.72Zm18.29-2.67,1.6,2.68,2.38-1.29L988.11,607Z"/><path class="cls-24" d="M688.07,436a5.22,5.22,0,0,1-4.91,3.8A3,3,0,0,1,680,436a5.21,5.21,0,0,1,4.9-3.81,3,3,0,0,1,3.14,3.81"/></svg>